<svg width="32" height="32" viewBox="0 0 32 32" fill="none" xmlns="http://www.w3.org/2000/svg">
<ellipse cx="16" cy="15.9096" rx="16" ry="15.9096" fill="#241F21"/>
<path d="M23.4779 12.3724C23.4898 12.5345 23.4898 12.6967 23.4898 12.8588C23.4898 17.8043 19.6311 23.5026 12.5785 23.5026C10.4057 23.5026 8.38731 22.8887 6.68945 21.8232C6.99816 21.858 7.29496 21.8695 7.61555 21.8695C9.40835 21.8695 11.0587 21.2789 12.3766 20.2713C10.6907 20.2365 9.27777 19.1594 8.79096 17.6769C9.02845 17.7116 9.26589 17.7348 9.51525 17.7348C9.85956 17.7348 10.2039 17.6884 10.5245 17.6074C8.76725 17.2599 7.4493 15.7543 7.4493 13.9359V13.8896C7.95982 14.1676 8.55352 14.3413 9.18275 14.3644C8.14979 13.6927 7.47305 12.5461 7.47305 11.2489C7.47305 10.554 7.66299 9.91699 7.99545 9.36105C9.88327 11.6311 12.7209 13.1136 15.9029 13.2757C15.8435 12.9978 15.8079 12.7083 15.8079 12.4187C15.8079 10.3571 17.5176 8.67773 19.6429 8.67773C20.7471 8.67773 21.7444 9.12943 22.4449 9.85909C23.3116 9.69695 24.1428 9.38422 24.8789 8.9557C24.5939 9.82437 23.9884 10.554 23.1929 11.0173C23.9647 10.9362 24.7127 10.7277 25.4013 10.4382C24.879 11.1794 24.2259 11.8396 23.4779 12.3724Z" fill="white"/>
</svg>
