<svg width="109" height="89" viewBox="0 0 109 89" fill="none" xmlns="http://www.w3.org/2000/svg">
<path d="M83.1153 33.2267H57.227L57.227 42.2398C57.227 48.7849 52.6148 54.7531 46.2329 55.4083C38.8939 56.1614 32.7012 50.2952 32.7012 42.9593V21.9821L28.5267 24.5422C20.9833 29.1773 16.3574 37.5021 16.3574 46.5047L2.73197 54.5515C0.134618 56.0724 -0.781694 59.4838 0.730731 62.1342L14.3562 86.2223C15.8678 88.8727 19.2102 89.7851 21.8076 88.2644L39.4185 77.8801H62.684C68.6877 77.8801 73.5843 72.8835 73.5843 66.7572C78.0995 66.7572 81.7596 63.0223 81.7596 58.415V50.0676H83.1221C85.3789 50.0676 87.2098 48.1992 87.2098 45.8965L87.2098 37.5543C87.203 35.2428 85.3806 33.2267 83.1153 33.2267ZM108.271 26.8658L94.6544 2.77771C93.1428 0.127327 89.8003 -0.785101 87.203 0.735612L69.5921 11.1199H58.9353C52.4887 11.1199 46.1733 12.9639 40.6942 16.4433C39.1221 17.4635 38.1513 19.2362 38.1513 21.1479L38.1513 43.1157C38.1513 46.9618 41.1966 50.0676 44.964 50.0676C48.7331 50.0676 51.7767 46.9601 51.7767 43.1157V27.6653H83.1153C88.3832 27.6653 92.6531 32.0223 92.6531 37.3978V42.351L106.279 34.313C108.884 32.9313 109.77 29.5249 108.271 26.8658Z" fill="#126EB8"/>
</svg>
