<svg width="91" height="73" viewBox="0 0 91 73" fill="none" xmlns="http://www.w3.org/2000/svg">
<path d="M82.4688 0C87.1787 0 91 4.08534 91 9.125C91 11.9956 89.7381 14.6951 87.5875 16.425L48.9125 47.45C46.8863 49.0659 44.1137 49.0659 42.0875 47.45L3.4125 16.425C1.26422 14.6951 0 11.9956 0 9.125C0 4.08534 3.81951 0 8.53125 0H82.4688ZM38.675 52.3167C42.7273 55.5675 48.2727 55.5675 52.325 52.3167L91 21.2917V60.8333C91 67.544 85.899 73 79.625 73H11.375C5.09209 73 0 67.544 0 60.8333V21.2917L38.675 52.3167Z" fill="#126EB8"/>
</svg>
