<svg width="73" height="103" viewBox="0 0 73 103" fill="none" xmlns="http://www.w3.org/2000/svg">
<path d="M2.47159 58.6365C-6.7059 84.4923 13.061 98.3835 24.0916 102.097C15.7084 98.788 13.2816 83.0142 15.2671 79.2638C16.8555 76.2634 22.4738 63.4532 25.0844 57.4231C29.6731 59.8057 31.9234 67.9022 32.4749 71.6526C40.3287 62.2104 41.2627 44.9217 40.7479 37.4577C43.4835 37.4577 50.9329 47.6058 54.3156 52.6799C67.6406 77.2121 55.6025 95.8465 47.9178 102.097C54.9774 102.097 62.3312 95.7729 65.1256 92.6108C77.3034 79.1093 72.3323 57.7173 68.3245 48.7089C68.8393 53.1579 69.4276 59.2101 67.6627 47.8265C65.8978 36.4428 41.4833 11.7563 29.4967 0.835938C27.114 15.0434 17.6939 31.1702 13.2816 37.4577C9.9283 42.7524 4.67772 53.783 2.47159 58.6365Z" fill="#126EB8"/>
<ellipse cx="66.1229" cy="52.1694" rx="2.75766" ry="6.61838" transform="rotate(-3.34397 66.1229 52.1694)" fill="#126EB8"/>
</svg>
