<svg width="132" height="133" viewBox="0 0 132 133" fill="none" xmlns="http://www.w3.org/2000/svg">
<path d="M129 66.5C129 101.591 100.773 130 66 130C31.2274 130 3 101.591 3 66.5C3 31.4085 31.2274 3 66 3C100.773 3 129 31.4085 129 66.5Z" fill="#DB7F45" stroke="#B26A3C" stroke-width="6"/>
<path d="M57.3082 76V72.4545L65.5923 64.7841C66.2969 64.1023 66.8878 63.4886 67.3651 62.9432C67.8499 62.3977 68.2173 61.8636 68.4673 61.3409C68.7173 60.8106 68.8423 60.2386 68.8423 59.625C68.8423 58.9432 68.687 58.3561 68.3764 57.8636C68.0658 57.3636 67.6416 56.9811 67.1037 56.7159C66.5658 56.4432 65.956 56.3068 65.2741 56.3068C64.562 56.3068 63.9408 56.4508 63.4105 56.7386C62.8802 57.0265 62.4711 57.4394 62.1832 57.9773C61.8954 58.5152 61.7514 59.1553 61.7514 59.8977H57.081C57.081 58.375 57.4257 57.053 58.1151 55.9318C58.8045 54.8106 59.7704 53.9432 61.0128 53.3295C62.2552 52.7159 63.687 52.4091 65.3082 52.4091C66.9749 52.4091 68.4257 52.7045 69.6605 53.2955C70.9029 53.8788 71.8688 54.6894 72.5582 55.7273C73.2476 56.7652 73.5923 57.9545 73.5923 59.2955C73.5923 60.1742 73.4181 61.0417 73.0696 61.8977C72.7287 62.7538 72.1188 63.7045 71.2401 64.75C70.3613 65.7879 69.1226 67.0341 67.5241 68.4886L64.1264 71.8182V71.9773H73.8991V76H57.3082Z" fill="white"/>
</svg>
