<svg width="125" height="125" viewBox="0 0 125 125" fill="none" xmlns="http://www.w3.org/2000/svg">
<circle cx="62.5" cy="62.5" r="59.5" fill="#DB7F45" stroke="#B26A3C" stroke-width="6"/>
<path d="M60.9418 73.3182C59.2448 73.3182 57.7334 73.0265 56.4077 72.4432C55.0895 71.8523 54.0478 71.0417 53.2827 70.0114C52.5251 68.9735 52.1349 67.7765 52.1122 66.4205H57.0668C57.0971 66.9886 57.2827 67.4886 57.6236 67.9205C57.9721 68.3447 58.4342 68.6742 59.0099 68.9091C59.5857 69.1439 60.2334 69.2614 60.9531 69.2614C61.7031 69.2614 62.366 69.1288 62.9418 68.8636C63.5175 68.5985 63.9683 68.2311 64.294 67.7614C64.6198 67.2917 64.7827 66.75 64.7827 66.1364C64.7827 65.5152 64.6084 64.9659 64.2599 64.4886C63.919 64.0038 63.4266 63.625 62.7827 63.3523C62.1463 63.0795 61.3887 62.9432 60.5099 62.9432H58.3395V59.3295H60.5099C61.2524 59.3295 61.9077 59.2008 62.4759 58.9432C63.0516 58.6856 63.4986 58.3295 63.8168 57.875C64.1349 57.4129 64.294 56.875 64.294 56.2614C64.294 55.678 64.1539 55.1667 63.8736 54.7273C63.6009 54.2803 63.2145 53.9318 62.7145 53.6818C62.2221 53.4318 61.6463 53.3068 60.9872 53.3068C60.3205 53.3068 59.7107 53.428 59.1577 53.6705C58.6046 53.9053 58.1615 54.2424 57.8281 54.6818C57.4948 55.1212 57.3168 55.6364 57.294 56.2273H52.5781C52.6009 54.8864 52.9834 53.7045 53.7259 52.6818C54.4683 51.6591 55.4683 50.8598 56.7259 50.2841C57.991 49.7008 59.419 49.4091 61.0099 49.4091C62.616 49.4091 64.0213 49.7008 65.2259 50.2841C66.4304 50.8674 67.366 51.6553 68.0327 52.6477C68.7069 53.6326 69.0402 54.7386 69.0327 55.9659C69.0402 57.2689 68.6349 58.3561 67.8168 59.2273C67.0062 60.0985 65.9493 60.6515 64.6463 60.8864V61.0682C66.3584 61.2879 67.6615 61.8826 68.5554 62.8523C69.4569 63.8144 69.9039 65.0189 69.8963 66.4659C69.9039 67.7917 69.5213 68.9697 68.7486 70C67.9834 71.0303 66.9266 71.8409 65.5781 72.4318C64.2296 73.0227 62.6842 73.3182 60.9418 73.3182Z" fill="white"/>
</svg>
