<svg width="94" height="91" viewBox="0 0 94 91" fill="none" xmlns="http://www.w3.org/2000/svg">
<path d="M93.862 68.7808L89.5931 86.6955C88.9934 89.2281 86.6938 91 84.0003 91C37.677 90.9964 0 54.5272 0 9.68708C0 7.08163 1.83042 4.85295 4.44706 4.27534L22.9551 0.143226C25.6505 -0.461395 28.4046 0.892872 29.5247 3.36361L38.0663 22.6468C39.0647 24.9181 38.3912 27.5645 36.4174 29.1249L26.5318 36.808C32.7709 49.1101 43.1045 59.1125 55.8178 65.1552L63.9114 55.5935C65.5066 53.6777 68.2611 53.0148 70.6077 53.9985L90.5295 62.2645C92.9256 63.4846 94.4863 66.186 93.862 68.7808Z" fill="#126EB8"/>
</svg>
