<svg width="87" height="82" viewBox="0 0 87 82" fill="none" xmlns="http://www.w3.org/2000/svg">
<path d="M86.2864 19.5542C85.7919 17.6144 83.1785 16.9662 81.6816 18.3769L68.6456 30.6607L54.4942 30.6606V17.3275L67.5302 5.04374C69.0272 3.63358 68.3391 1.17057 66.2809 0.70527C62.2466 -0.208151 57.8786 -0.275218 53.3522 0.745125C42.8876 3.10369 34.722 11.479 33.0531 21.4909C32.1669 25.6512 32.5926 29.8068 33.9209 33.5612L3.59151 62.1367C-1.19717 66.6485 -1.19717 73.96 3.59151 78.4702C5.83258 80.7325 8.96599 82 11.953 82C14.9399 82 18.2266 80.8719 20.6226 78.6162L50.952 50.0407C54.9471 51.2819 59.3493 51.6836 63.9234 51.004C74.5514 49.4252 83.4391 41.7302 85.9424 31.8788C87.3252 27.4642 87.2571 23.3568 86.2864 19.5542ZM13.4686 73.015C11.2122 73.015 9.38151 71.2902 9.38151 69.1643C9.38151 67.0368 11.2122 65.3136 13.4686 65.3136C15.725 65.3136 17.5556 67.0368 17.5556 69.1643C17.5556 71.2982 15.725 73.015 13.4686 73.015Z" fill="#126EB8"/>
</svg>
