<svg width="63" height="44" viewBox="0 0 63 44" fill="none" xmlns="http://www.w3.org/2000/svg">
<path d="M63 27.3736C63 36.448 55.4484 43.7979 46.125 43.7979H45C42.5109 43.7979 40.5 41.8406 40.5 39.4181C40.5 36.9955 42.5109 35.0383 45 35.0383H46.125C50.4703 35.0383 54 31.6029 54 27.3736V26.2787L45 26.2787C40.0359 26.2787 36 22.3506 36 17.5191V8.75952C36 3.92807 40.0359 -5.74589e-05 45 -5.74589e-05H54C58.9641 -5.74589e-05 63 3.92807 63 8.75952L63 13.1393V17.5191V27.3736ZM27 27.3736C27 36.448 19.4484 43.7979 10.125 43.7979H9C6.51094 43.7979 4.5 41.8406 4.5 39.4181C4.5 36.9955 6.51094 35.0383 9 35.0383H10.125C14.4703 35.0383 18 31.6029 18 27.3736V26.2787L9 26.2787C4.03594 26.2787 0 22.3506 0 17.5191L0 8.75952C0 3.92807 4.03594 -5.74589e-05 9 -5.74589e-05H18C22.9641 -5.74589e-05 27 3.92807 27 8.75952L27 13.1393V17.5191V27.3736Z" fill="white"/>
</svg>
