<svg width="214" height="164" viewBox="0 0 214 164" fill="none" xmlns="http://www.w3.org/2000/svg">
<path d="M16.5767 146.02C16.5218 145.848 16.4479 145.693 16.3551 145.557C16.2642 145.419 16.1553 145.301 16.0284 145.205C15.9015 145.106 15.7566 145.031 15.5938 144.98C15.4328 144.929 15.2557 144.903 15.0625 144.903C14.7348 144.903 14.4394 144.988 14.1761 145.156C13.9129 145.325 13.7045 145.572 13.5511 145.898C13.3996 146.222 13.3239 146.618 13.3239 147.088C13.3239 147.56 13.4006 147.958 13.554 148.284C13.7074 148.61 13.9176 148.857 14.1847 149.026C14.4517 149.194 14.7557 149.278 15.0966 149.278C15.4129 149.278 15.6884 149.214 15.9233 149.085C16.16 148.956 16.3428 148.775 16.4716 148.54C16.6023 148.303 16.6676 148.025 16.6676 147.705L16.8949 147.747H15.2301V147.023H17.517V147.685C17.517 148.173 17.4129 148.598 17.2045 148.957C16.9981 149.315 16.7121 149.592 16.3466 149.787C15.983 149.982 15.5663 150.08 15.0966 150.08C14.5701 150.08 14.108 149.958 13.7102 149.716C13.3144 149.473 13.0057 149.13 12.7841 148.685C12.5625 148.238 12.4517 147.707 12.4517 147.094C12.4517 146.63 12.5161 146.213 12.6449 145.844C12.7737 145.474 12.9545 145.161 13.1875 144.903C13.4223 144.644 13.6979 144.446 14.0142 144.31C14.3324 144.171 14.6799 144.102 15.0568 144.102C15.3712 144.102 15.6638 144.149 15.9347 144.241C16.2074 144.334 16.4498 144.466 16.6619 144.636C16.8759 144.807 17.053 145.009 17.1932 145.244C17.3333 145.477 17.428 145.736 17.4773 146.02H16.5767ZM19.8331 150.097C19.5566 150.097 19.3066 150.045 19.0831 149.943C18.8596 149.839 18.6825 149.688 18.5518 149.491C18.4231 149.295 18.3587 149.053 18.3587 148.767C18.3587 148.521 18.406 148.318 18.5007 148.159C18.5954 148 18.7232 147.874 18.8842 147.781C19.0452 147.688 19.2251 147.618 19.424 147.571C19.6229 147.524 19.8255 147.488 20.032 147.463C20.2933 147.433 20.5054 147.408 20.6683 147.389C20.8312 147.368 20.9496 147.335 21.0234 147.29C21.0973 147.244 21.1342 147.17 21.1342 147.068V147.048C21.1342 146.8 21.0642 146.608 20.924 146.472C20.7857 146.335 20.5793 146.267 20.3047 146.267C20.0187 146.267 19.7933 146.33 19.6286 146.457C19.4657 146.582 19.353 146.722 19.2905 146.875L18.4922 146.693C18.5869 146.428 18.7251 146.214 18.907 146.051C19.0907 145.886 19.3018 145.767 19.5405 145.693C19.7791 145.617 20.0301 145.58 20.2933 145.58C20.4676 145.58 20.6522 145.6 20.8473 145.642C21.0443 145.682 21.228 145.756 21.3984 145.864C21.5708 145.972 21.7119 146.126 21.8217 146.327C21.9316 146.526 21.9865 146.784 21.9865 147.102V150H21.157V149.403H21.1229C21.0679 149.513 20.9856 149.621 20.8757 149.727C20.7659 149.833 20.6248 149.921 20.4524 149.991C20.2801 150.062 20.0736 150.097 19.8331 150.097ZM20.0178 149.415C20.2526 149.415 20.4534 149.368 20.62 149.276C20.7886 149.183 20.9164 149.062 21.0036 148.912C21.0926 148.76 21.1371 148.598 21.1371 148.426V147.864C21.1068 147.894 21.0481 147.922 20.9609 147.949C20.8757 147.973 20.7782 147.995 20.6683 148.014C20.5585 148.031 20.4515 148.047 20.3473 148.062C20.2431 148.076 20.156 148.087 20.0859 148.097C19.9212 148.117 19.7706 148.152 19.6342 148.202C19.4998 148.251 19.3918 148.322 19.3104 148.415C19.2308 148.506 19.1911 148.627 19.1911 148.778C19.1911 148.989 19.2687 149.148 19.424 149.256C19.5793 149.362 19.7772 149.415 20.0178 149.415ZM26.3878 146.702L25.6179 146.838C25.5857 146.74 25.5346 146.646 25.4645 146.557C25.3963 146.468 25.3035 146.395 25.1861 146.338C25.0687 146.281 24.9219 146.253 24.7457 146.253C24.5052 146.253 24.3045 146.307 24.1435 146.415C23.9825 146.521 23.902 146.658 23.902 146.827C23.902 146.973 23.956 147.09 24.0639 147.179C24.1719 147.268 24.3461 147.341 24.5866 147.398L25.2798 147.557C25.6813 147.65 25.9806 147.793 26.1776 147.986C26.3745 148.179 26.473 148.43 26.473 148.739C26.473 149 26.3973 149.233 26.2457 149.438C26.0961 149.64 25.8868 149.799 25.6179 149.915C25.3509 150.03 25.0412 150.088 24.6889 150.088C24.2003 150.088 23.8016 149.984 23.4929 149.776C23.1842 149.565 22.9948 149.267 22.9247 148.881L23.7457 148.756C23.7969 148.97 23.902 149.132 24.0611 149.241C24.2202 149.349 24.4276 149.403 24.6832 149.403C24.9616 149.403 25.1842 149.346 25.3509 149.23C25.5175 149.113 25.6009 148.97 25.6009 148.801C25.6009 148.665 25.5497 148.55 25.4474 148.457C25.3471 148.365 25.1927 148.295 24.9844 148.247L24.2457 148.085C23.8385 147.992 23.5374 147.845 23.3423 147.642C23.1491 147.439 23.0526 147.183 23.0526 146.872C23.0526 146.615 23.1245 146.389 23.2685 146.196C23.4124 146.003 23.6113 145.852 23.8651 145.744C24.1188 145.634 24.4096 145.58 24.7372 145.58C25.2088 145.58 25.58 145.682 25.8509 145.886C26.1217 146.089 26.3007 146.361 26.3878 146.702ZM29.5241 150V145.636H30.3452V146.33H30.3906C30.4702 146.095 30.6103 145.91 30.8111 145.776C31.0137 145.639 31.2429 145.571 31.4986 145.571C31.5516 145.571 31.6141 145.573 31.6861 145.577C31.7599 145.58 31.8177 145.585 31.8594 145.591V146.403C31.8253 146.394 31.7647 146.384 31.6776 146.372C31.5904 146.359 31.5033 146.352 31.4162 146.352C31.2154 146.352 31.0365 146.395 30.8793 146.48C30.724 146.563 30.6009 146.68 30.5099 146.83C30.419 146.977 30.3736 147.146 30.3736 147.335V150H29.5241ZM34.3189 150.088C33.889 150.088 33.5187 149.996 33.2081 149.812C32.8994 149.627 32.6607 149.366 32.4922 149.031C32.3255 148.694 32.2422 148.299 32.2422 147.847C32.2422 147.4 32.3255 147.006 32.4922 146.665C32.6607 146.324 32.8956 146.058 33.1967 145.866C33.4998 145.675 33.8539 145.58 34.2592 145.58C34.5054 145.58 34.7441 145.62 34.9751 145.702C35.2062 145.783 35.4136 145.911 35.5973 146.085C35.781 146.259 35.9259 146.486 36.032 146.764C36.138 147.041 36.1911 147.377 36.1911 147.773V148.074H32.7223V147.438H35.3587C35.3587 147.214 35.3132 147.016 35.2223 146.844C35.1314 146.67 35.0036 146.532 34.8388 146.432C34.6759 146.331 34.4846 146.281 34.2649 146.281C34.0263 146.281 33.8179 146.34 33.6399 146.457C33.4638 146.573 33.3274 146.724 33.2308 146.912C33.1361 147.098 33.0888 147.299 33.0888 147.517V148.014C33.0888 148.306 33.1399 148.554 33.2422 148.759C33.3464 148.963 33.4912 149.119 33.6768 149.227C33.8625 149.333 34.0793 149.386 34.3274 149.386C34.4884 149.386 34.6352 149.364 34.7678 149.318C34.9003 149.271 35.0149 149.201 35.1115 149.108C35.2081 149.015 35.282 148.901 35.3331 148.764L36.1371 148.909C36.0727 149.146 35.9571 149.353 35.7905 149.531C35.6257 149.707 35.4183 149.845 35.1683 149.943C34.9202 150.04 34.6371 150.088 34.3189 150.088ZM37.1335 151.636V145.636H37.9631V146.344H38.0341C38.0833 146.253 38.1544 146.148 38.2472 146.028C38.34 145.909 38.4688 145.805 38.6335 145.716C38.7983 145.625 39.0161 145.58 39.2869 145.58C39.6392 145.58 39.9536 145.669 40.2301 145.847C40.5066 146.025 40.7235 146.281 40.8807 146.616C41.0398 146.952 41.1193 147.355 41.1193 147.827C41.1193 148.298 41.0407 148.703 40.8835 149.04C40.7263 149.375 40.5104 149.634 40.2358 149.815C39.9612 149.995 39.6477 150.085 39.2955 150.085C39.0303 150.085 38.8134 150.041 38.6449 149.952C38.4782 149.863 38.3475 149.759 38.2528 149.639C38.1581 149.52 38.0852 149.414 38.0341 149.321H37.983V151.636H37.1335ZM37.9659 147.818C37.9659 148.125 38.0104 148.394 38.0994 148.625C38.1884 148.856 38.3172 149.037 38.4858 149.168C38.6544 149.296 38.8608 149.361 39.1051 149.361C39.3589 149.361 39.571 149.294 39.7415 149.159C39.9119 149.023 40.0407 148.838 40.1278 148.605C40.2169 148.372 40.2614 148.11 40.2614 147.818C40.2614 147.53 40.2178 147.272 40.1307 147.043C40.0455 146.813 39.9167 146.633 39.7443 146.5C39.5739 146.367 39.3608 146.301 39.1051 146.301C38.8589 146.301 38.6506 146.365 38.4801 146.491C38.3116 146.618 38.1837 146.795 38.0966 147.023C38.0095 147.25 37.9659 147.515 37.9659 147.818ZM43.3409 150.097C43.0644 150.097 42.8144 150.045 42.5909 149.943C42.3674 149.839 42.1903 149.688 42.0597 149.491C41.9309 149.295 41.8665 149.053 41.8665 148.767C41.8665 148.521 41.9138 148.318 42.0085 148.159C42.1032 148 42.2311 147.874 42.392 147.781C42.553 147.688 42.733 147.618 42.9318 147.571C43.1307 147.524 43.3333 147.488 43.5398 147.463C43.8011 147.433 44.0133 147.408 44.1761 147.389C44.339 147.368 44.4574 147.335 44.5312 147.29C44.6051 147.244 44.642 147.17 44.642 147.068V147.048C44.642 146.8 44.572 146.608 44.4318 146.472C44.2936 146.335 44.0871 146.267 43.8125 146.267C43.5265 146.267 43.3011 146.33 43.1364 146.457C42.9735 146.582 42.8608 146.722 42.7983 146.875L42 146.693C42.0947 146.428 42.233 146.214 42.4148 146.051C42.5985 145.886 42.8097 145.767 43.0483 145.693C43.2869 145.617 43.5379 145.58 43.8011 145.58C43.9754 145.58 44.16 145.6 44.3551 145.642C44.5521 145.682 44.7358 145.756 44.9062 145.864C45.0786 145.972 45.2197 146.126 45.3295 146.327C45.4394 146.526 45.4943 146.784 45.4943 147.102V150H44.6648V149.403H44.6307C44.5758 149.513 44.4934 149.621 44.3835 149.727C44.2737 149.833 44.1326 149.921 43.9602 149.991C43.7879 150.062 43.5814 150.097 43.3409 150.097ZM43.5256 149.415C43.7604 149.415 43.9612 149.368 44.1278 149.276C44.2964 149.183 44.4242 149.062 44.5114 148.912C44.6004 148.76 44.6449 148.598 44.6449 148.426V147.864C44.6146 147.894 44.5559 147.922 44.4688 147.949C44.3835 147.973 44.286 147.995 44.1761 148.014C44.0663 148.031 43.9593 148.047 43.8551 148.062C43.7509 148.076 43.6638 148.087 43.5938 148.097C43.429 148.117 43.2784 148.152 43.142 148.202C43.0076 148.251 42.8996 148.322 42.8182 148.415C42.7386 148.506 42.6989 148.627 42.6989 148.778C42.6989 148.989 42.7765 149.148 42.9318 149.256C43.0871 149.362 43.285 149.415 43.5256 149.415ZM46.6257 150V145.636H47.4751V150H46.6257ZM47.0547 144.963C46.907 144.963 46.7801 144.914 46.674 144.815C46.5698 144.715 46.5178 144.596 46.5178 144.457C46.5178 144.317 46.5698 144.198 46.674 144.099C46.7801 143.999 46.907 143.949 47.0547 143.949C47.2024 143.949 47.3284 143.999 47.4325 144.099C47.5386 144.198 47.5916 144.317 47.5916 144.457C47.5916 144.596 47.5386 144.715 47.4325 144.815C47.3284 144.914 47.2024 144.963 47.0547 144.963ZM48.6179 150V145.636H49.4389V146.33H49.4844C49.5639 146.095 49.7041 145.91 49.9048 145.776C50.1075 145.639 50.3366 145.571 50.5923 145.571C50.6454 145.571 50.7079 145.573 50.7798 145.577C50.8537 145.58 50.9115 145.585 50.9531 145.591V146.403C50.919 146.394 50.8584 146.384 50.7713 146.372C50.6842 146.359 50.5971 146.352 50.5099 146.352C50.3092 146.352 50.1302 146.395 49.973 146.48C49.8177 146.563 49.6946 146.68 49.6037 146.83C49.5128 146.977 49.4673 147.146 49.4673 147.335V150H48.6179Z" fill="#1A0202"/>
<path d="M160.147 150V144.182H163.795V144.938H161.025V146.71H163.604V147.463H161.025V149.244H163.829V150H160.147ZM164.899 150V145.636H165.714V146.347H165.768C165.859 146.106 166.008 145.919 166.214 145.784C166.421 145.648 166.668 145.58 166.956 145.58C167.248 145.58 167.492 145.648 167.689 145.784C167.888 145.92 168.035 146.108 168.129 146.347H168.175C168.279 146.114 168.445 145.928 168.672 145.79C168.899 145.65 169.17 145.58 169.484 145.58C169.88 145.58 170.203 145.704 170.453 145.952C170.705 146.2 170.831 146.574 170.831 147.074V150H169.982V147.153C169.982 146.858 169.901 146.644 169.74 146.511C169.579 146.379 169.387 146.312 169.163 146.312C168.887 146.312 168.672 146.398 168.518 146.568C168.365 146.737 168.288 146.954 168.288 147.219V150H167.442V147.099C167.442 146.863 167.368 146.672 167.22 146.528C167.072 146.384 166.88 146.312 166.643 146.312C166.482 146.312 166.334 146.355 166.197 146.44C166.063 146.524 165.954 146.64 165.871 146.79C165.789 146.939 165.749 147.113 165.749 147.31V150H164.899ZM173.85 150.088C173.42 150.088 173.05 149.996 172.739 149.812C172.431 149.627 172.192 149.366 172.023 149.031C171.857 148.694 171.773 148.299 171.773 147.847C171.773 147.4 171.857 147.006 172.023 146.665C172.192 146.324 172.427 146.058 172.728 145.866C173.031 145.675 173.385 145.58 173.79 145.58C174.037 145.58 174.275 145.62 174.506 145.702C174.737 145.783 174.945 145.911 175.129 146.085C175.312 146.259 175.457 146.486 175.563 146.764C175.669 147.041 175.722 147.377 175.722 147.773V148.074H172.254V147.438H174.89C174.89 147.214 174.844 147.016 174.754 146.844C174.663 146.67 174.535 146.532 174.37 146.432C174.207 146.331 174.016 146.281 173.796 146.281C173.558 146.281 173.349 146.34 173.171 146.457C172.995 146.573 172.859 146.724 172.762 146.912C172.667 147.098 172.62 147.299 172.62 147.517V148.014C172.62 148.306 172.671 148.554 172.773 148.759C172.878 148.963 173.022 149.119 173.208 149.227C173.394 149.333 173.611 149.386 173.859 149.386C174.02 149.386 174.166 149.364 174.299 149.318C174.432 149.271 174.546 149.201 174.643 149.108C174.739 149.015 174.813 148.901 174.864 148.764L175.668 148.909C175.604 149.146 175.488 149.353 175.322 149.531C175.157 149.707 174.95 149.845 174.7 149.943C174.451 150.04 174.168 150.088 173.85 150.088ZM176.665 150V145.636H177.486V146.33H177.531C177.611 146.095 177.751 145.91 177.952 145.776C178.154 145.639 178.384 145.571 178.639 145.571C178.692 145.571 178.755 145.573 178.827 145.577C178.901 145.58 178.958 145.585 179 145.591V146.403C178.966 146.394 178.905 146.384 178.818 146.372C178.731 146.359 178.644 146.352 178.557 146.352C178.356 146.352 178.177 146.395 178.02 146.48C177.865 146.563 177.741 146.68 177.651 146.83C177.56 146.977 177.514 147.146 177.514 147.335V150H176.665ZM181.408 151.727C181.062 151.727 180.763 151.682 180.513 151.591C180.265 151.5 180.063 151.38 179.906 151.23C179.748 151.08 179.631 150.917 179.553 150.739L180.283 150.438C180.335 150.521 180.403 150.609 180.488 150.702C180.575 150.796 180.692 150.877 180.84 150.943C180.99 151.009 181.182 151.043 181.417 151.043C181.739 151.043 182.005 150.964 182.215 150.807C182.425 150.652 182.531 150.403 182.531 150.062V149.205H182.477C182.425 149.297 182.352 149.401 182.255 149.514C182.16 149.628 182.03 149.726 181.863 149.81C181.696 149.893 181.479 149.935 181.212 149.935C180.868 149.935 180.557 149.854 180.281 149.693C180.006 149.53 179.788 149.291 179.627 148.974C179.468 148.656 179.388 148.265 179.388 147.801C179.388 147.337 179.467 146.939 179.624 146.608C179.783 146.277 180.001 146.023 180.278 145.847C180.554 145.669 180.868 145.58 181.218 145.58C181.489 145.58 181.708 145.625 181.874 145.716C182.041 145.805 182.171 145.909 182.263 146.028C182.358 146.148 182.431 146.253 182.482 146.344H182.545V145.636H183.377V150.097C183.377 150.472 183.29 150.779 183.116 151.02C182.942 151.26 182.706 151.438 182.408 151.554C182.113 151.67 181.78 151.727 181.408 151.727ZM181.4 149.23C181.644 149.23 181.851 149.173 182.019 149.06C182.19 148.944 182.318 148.779 182.406 148.565C182.495 148.349 182.539 148.091 182.539 147.79C182.539 147.496 182.496 147.238 182.408 147.014C182.321 146.791 182.193 146.616 182.025 146.491C181.856 146.365 181.648 146.301 181.4 146.301C181.144 146.301 180.931 146.367 180.761 146.5C180.59 146.631 180.461 146.809 180.374 147.034C180.289 147.259 180.246 147.511 180.246 147.79C180.246 148.076 180.29 148.327 180.377 148.543C180.464 148.759 180.593 148.927 180.763 149.048C180.936 149.17 181.148 149.23 181.4 149.23ZM186.397 150.088C185.967 150.088 185.597 149.996 185.286 149.812C184.978 149.627 184.739 149.366 184.57 149.031C184.404 148.694 184.32 148.299 184.32 147.847C184.32 147.4 184.404 147.006 184.57 146.665C184.739 146.324 184.974 146.058 185.275 145.866C185.578 145.675 185.932 145.58 186.337 145.58C186.584 145.58 186.822 145.62 187.053 145.702C187.284 145.783 187.492 145.911 187.675 146.085C187.859 146.259 188.004 146.486 188.11 146.764C188.216 147.041 188.269 147.377 188.269 147.773V148.074H184.8V147.438H187.437C187.437 147.214 187.391 147.016 187.3 146.844C187.21 146.67 187.082 146.532 186.917 146.432C186.754 146.331 186.563 146.281 186.343 146.281C186.104 146.281 185.896 146.34 185.718 146.457C185.542 146.573 185.406 146.724 185.309 146.912C185.214 147.098 185.167 147.299 185.167 147.517V148.014C185.167 148.306 185.218 148.554 185.32 148.759C185.424 148.963 185.569 149.119 185.755 149.227C185.941 149.333 186.157 149.386 186.406 149.386C186.567 149.386 186.713 149.364 186.846 149.318C186.978 149.271 187.093 149.201 187.19 149.108C187.286 149.015 187.36 148.901 187.411 148.764L188.215 148.909C188.151 149.146 188.035 149.353 187.869 149.531C187.704 149.707 187.496 149.845 187.246 149.943C186.998 150.04 186.715 150.088 186.397 150.088ZM190.061 147.409V150H189.212V145.636H190.027V146.347H190.081C190.181 146.116 190.339 145.93 190.553 145.79C190.768 145.65 191.04 145.58 191.368 145.58C191.665 145.58 191.926 145.642 192.149 145.767C192.373 145.89 192.546 146.074 192.669 146.318C192.792 146.562 192.854 146.865 192.854 147.224V150H192.004V147.327C192.004 147.01 191.922 146.763 191.757 146.585C191.592 146.405 191.366 146.315 191.078 146.315C190.881 146.315 190.706 146.358 190.553 146.443C190.401 146.528 190.281 146.653 190.192 146.818C190.105 146.981 190.061 147.178 190.061 147.409ZM195.831 150.088C195.409 150.088 195.045 149.992 194.74 149.801C194.437 149.608 194.204 149.342 194.041 149.003C193.878 148.664 193.797 148.276 193.797 147.838C193.797 147.395 193.88 147.004 194.047 146.665C194.214 146.324 194.448 146.058 194.751 145.866C195.054 145.675 195.411 145.58 195.822 145.58C196.154 145.58 196.449 145.641 196.709 145.764C196.968 145.885 197.178 146.056 197.337 146.276C197.498 146.495 197.593 146.752 197.624 147.045H196.797C196.751 146.841 196.647 146.665 196.484 146.517C196.323 146.369 196.107 146.295 195.837 146.295C195.6 146.295 195.393 146.358 195.214 146.483C195.038 146.606 194.901 146.782 194.803 147.011C194.704 147.239 194.655 147.508 194.655 147.818C194.655 148.136 194.703 148.411 194.8 148.642C194.896 148.873 195.033 149.052 195.209 149.179C195.387 149.306 195.596 149.369 195.837 149.369C195.998 149.369 196.143 149.34 196.274 149.281C196.407 149.221 196.518 149.134 196.607 149.023C196.697 148.911 196.761 148.777 196.797 148.619H197.624C197.593 148.902 197.501 149.153 197.348 149.375C197.195 149.597 196.989 149.771 196.732 149.898C196.476 150.025 196.176 150.088 195.831 150.088ZM199.069 151.636C198.942 151.636 198.826 151.626 198.722 151.605C198.618 151.586 198.54 151.565 198.489 151.543L198.694 150.847C198.849 150.888 198.987 150.906 199.109 150.901C199.23 150.895 199.337 150.849 199.43 150.764C199.524 150.679 199.608 150.54 199.68 150.347L199.785 150.057L198.188 145.636H199.097L200.202 149.023H200.248L201.353 145.636H202.265L200.467 150.582C200.383 150.81 200.277 151.002 200.148 151.159C200.02 151.318 199.866 151.438 199.688 151.517C199.51 151.597 199.304 151.636 199.069 151.636ZM168.724 157.702L167.954 157.838C167.922 157.74 167.871 157.646 167.8 157.557C167.732 157.468 167.639 157.395 167.522 157.338C167.405 157.281 167.258 157.253 167.082 157.253C166.841 157.253 166.64 157.307 166.479 157.415C166.318 157.521 166.238 157.658 166.238 157.827C166.238 157.973 166.292 158.09 166.4 158.179C166.508 158.268 166.682 158.341 166.923 158.398L167.616 158.557C168.017 158.65 168.317 158.793 168.513 158.986C168.71 159.179 168.809 159.43 168.809 159.739C168.809 160 168.733 160.233 168.582 160.438C168.432 160.64 168.223 160.799 167.954 160.915C167.687 161.03 167.377 161.088 167.025 161.088C166.536 161.088 166.138 160.984 165.829 160.776C165.52 160.565 165.331 160.267 165.261 159.881L166.082 159.756C166.133 159.97 166.238 160.132 166.397 160.241C166.556 160.349 166.763 160.403 167.019 160.403C167.298 160.403 167.52 160.346 167.687 160.23C167.853 160.113 167.937 159.97 167.937 159.801C167.937 159.665 167.886 159.55 167.783 159.457C167.683 159.365 167.529 159.295 167.32 159.247L166.582 159.085C166.174 158.992 165.873 158.845 165.678 158.642C165.485 158.439 165.388 158.183 165.388 157.872C165.388 157.615 165.46 157.389 165.604 157.196C165.748 157.003 165.947 156.852 166.201 156.744C166.455 156.634 166.746 156.58 167.073 156.58C167.545 156.58 167.916 156.682 168.187 156.886C168.458 157.089 168.637 157.361 168.724 157.702ZM171.624 161.088C171.194 161.088 170.823 160.996 170.513 160.812C170.204 160.627 169.965 160.366 169.797 160.031C169.63 159.694 169.547 159.299 169.547 158.847C169.547 158.4 169.63 158.006 169.797 157.665C169.965 157.324 170.2 157.058 170.501 156.866C170.804 156.675 171.159 156.58 171.564 156.58C171.81 156.58 172.049 156.62 172.28 156.702C172.511 156.783 172.718 156.911 172.902 157.085C173.086 157.259 173.231 157.486 173.337 157.764C173.443 158.041 173.496 158.377 173.496 158.773V159.074H170.027V158.438H172.663C172.663 158.214 172.618 158.016 172.527 157.844C172.436 157.67 172.308 157.532 172.143 157.432C171.981 157.331 171.789 157.281 171.57 157.281C171.331 157.281 171.123 157.34 170.945 157.457C170.768 157.573 170.632 157.724 170.536 157.912C170.441 158.098 170.393 158.299 170.393 158.517V159.014C170.393 159.306 170.445 159.554 170.547 159.759C170.651 159.963 170.796 160.119 170.982 160.227C171.167 160.333 171.384 160.386 171.632 160.386C171.793 160.386 171.94 160.364 172.072 160.318C172.205 160.271 172.32 160.201 172.416 160.108C172.513 160.015 172.587 159.901 172.638 159.764L173.442 159.909C173.377 160.146 173.262 160.353 173.095 160.531C172.93 160.707 172.723 160.845 172.473 160.943C172.225 161.04 171.942 161.088 171.624 161.088ZM174.438 161V156.636H175.259V157.33H175.305C175.384 157.095 175.524 156.91 175.725 156.776C175.928 156.639 176.157 156.571 176.413 156.571C176.466 156.571 176.528 156.573 176.6 156.577C176.674 156.58 176.732 156.585 176.773 156.591V157.403C176.739 157.394 176.679 157.384 176.592 157.372C176.504 157.359 176.417 157.352 176.33 157.352C176.129 157.352 175.951 157.395 175.793 157.48C175.638 157.563 175.515 157.68 175.424 157.83C175.333 157.977 175.288 158.146 175.288 158.335V161H174.438ZM181.374 156.636L179.792 161H178.883L177.298 156.636H178.21L179.315 159.994H179.36L180.462 156.636H181.374ZM182.173 161V156.636H183.022V161H182.173ZM182.602 155.963C182.454 155.963 182.327 155.914 182.221 155.815C182.117 155.715 182.065 155.596 182.065 155.457C182.065 155.317 182.117 155.198 182.221 155.099C182.327 154.999 182.454 154.949 182.602 154.949C182.749 154.949 182.875 154.999 182.979 155.099C183.085 155.198 183.138 155.317 183.138 155.457C183.138 155.596 183.085 155.715 182.979 155.815C182.875 155.914 182.749 155.963 182.602 155.963ZM186.003 161.088C185.58 161.088 185.217 160.992 184.912 160.801C184.609 160.608 184.376 160.342 184.213 160.003C184.05 159.664 183.969 159.276 183.969 158.838C183.969 158.395 184.052 158.004 184.219 157.665C184.385 157.324 184.62 157.058 184.923 156.866C185.226 156.675 185.583 156.58 185.994 156.58C186.326 156.58 186.621 156.641 186.881 156.764C187.14 156.885 187.349 157.056 187.509 157.276C187.67 157.495 187.765 157.752 187.795 158.045H186.969C186.923 157.841 186.819 157.665 186.656 157.517C186.495 157.369 186.279 157.295 186.009 157.295C185.772 157.295 185.564 157.358 185.386 157.483C185.21 157.606 185.073 157.782 184.974 158.011C184.876 158.239 184.827 158.508 184.827 158.818C184.827 159.136 184.875 159.411 184.972 159.642C185.068 159.873 185.205 160.052 185.381 160.179C185.559 160.306 185.768 160.369 186.009 160.369C186.17 160.369 186.315 160.34 186.446 160.281C186.579 160.221 186.689 160.134 186.778 160.023C186.869 159.911 186.933 159.777 186.969 159.619H187.795C187.765 159.902 187.673 160.153 187.52 160.375C187.366 160.597 187.161 160.771 186.903 160.898C186.648 161.025 186.348 161.088 186.003 161.088ZM190.585 161.088C190.155 161.088 189.784 160.996 189.474 160.812C189.165 160.627 188.926 160.366 188.758 160.031C188.591 159.694 188.508 159.299 188.508 158.847C188.508 158.4 188.591 158.006 188.758 157.665C188.926 157.324 189.161 157.058 189.462 156.866C189.765 156.675 190.12 156.58 190.525 156.58C190.771 156.58 191.01 156.62 191.241 156.702C191.472 156.783 191.679 156.911 191.863 157.085C192.047 157.259 192.192 157.486 192.298 157.764C192.404 158.041 192.457 158.377 192.457 158.773V159.074H188.988V158.438H191.624C191.624 158.214 191.579 158.016 191.488 157.844C191.397 157.67 191.269 157.532 191.104 157.432C190.942 157.331 190.75 157.281 190.531 157.281C190.292 157.281 190.084 157.34 189.906 157.457C189.729 157.573 189.593 157.724 189.496 157.912C189.402 158.098 189.354 158.299 189.354 158.517V159.014C189.354 159.306 189.406 159.554 189.508 159.759C189.612 159.963 189.757 160.119 189.942 160.227C190.128 160.333 190.345 160.386 190.593 160.386C190.754 160.386 190.901 160.364 191.033 160.318C191.166 160.271 191.281 160.201 191.377 160.108C191.474 160.015 191.548 159.901 191.599 159.764L192.403 159.909C192.338 160.146 192.223 160.353 192.056 160.531C191.891 160.707 191.684 160.845 191.434 160.943C191.186 161.04 190.903 161.088 190.585 161.088ZM196.669 157.702L195.899 157.838C195.867 157.74 195.816 157.646 195.746 157.557C195.678 157.468 195.585 157.395 195.467 157.338C195.35 157.281 195.203 157.253 195.027 157.253C194.786 157.253 194.586 157.307 194.425 157.415C194.264 157.521 194.183 157.658 194.183 157.827C194.183 157.973 194.237 158.09 194.345 158.179C194.453 158.268 194.627 158.341 194.868 158.398L195.561 158.557C195.963 158.65 196.262 158.793 196.459 158.986C196.656 159.179 196.754 159.43 196.754 159.739C196.754 160 196.679 160.233 196.527 160.438C196.377 160.64 196.168 160.799 195.899 160.915C195.632 161.03 195.322 161.088 194.97 161.088C194.482 161.088 194.083 160.984 193.774 160.776C193.465 160.565 193.276 160.267 193.206 159.881L194.027 159.756C194.078 159.97 194.183 160.132 194.342 160.241C194.501 160.349 194.709 160.403 194.964 160.403C195.243 160.403 195.465 160.346 195.632 160.23C195.799 160.113 195.882 159.97 195.882 159.801C195.882 159.665 195.831 159.55 195.729 159.457C195.628 159.365 195.474 159.295 195.266 159.247L194.527 159.085C194.12 158.992 193.819 158.845 193.624 158.642C193.43 158.439 193.334 158.183 193.334 157.872C193.334 157.615 193.406 157.389 193.55 157.196C193.694 157.003 193.893 156.852 194.146 156.744C194.4 156.634 194.691 156.58 195.018 156.58C195.49 156.58 195.861 156.682 196.132 156.886C196.403 157.089 196.582 157.361 196.669 157.702Z" fill="#1A0202"/>
<path d="M88.3111 66V60.1818H90.3849C90.8376 60.1818 91.2126 60.2642 91.5099 60.429C91.8073 60.5937 92.0298 60.8191 92.1776 61.1051C92.3253 61.3892 92.3991 61.7093 92.3991 62.0653C92.3991 62.4233 92.3243 62.7453 92.1747 63.0312C92.027 63.3153 91.8035 63.5407 91.5043 63.7074C91.2069 63.8722 90.8329 63.9545 90.3821 63.9545H88.956V63.2102H90.3026C90.5885 63.2102 90.8205 63.161 90.9986 63.0625C91.1766 62.9621 91.3073 62.8258 91.3906 62.6534C91.474 62.4811 91.5156 62.285 91.5156 62.0653C91.5156 61.8456 91.474 61.6506 91.3906 61.4801C91.3073 61.3097 91.1757 61.1761 90.9957 61.0795C90.8177 60.983 90.5829 60.9347 90.2912 60.9347H89.1889V66H88.3111ZM94.2095 60.1818V66H93.3601V60.1818H94.2095ZM98.1165 64.1903V61.6364H98.9688V66H98.1335V65.2443H98.0881C97.9877 65.4773 97.8267 65.6714 97.6051 65.8267C97.3854 65.9801 97.1117 66.0568 96.7841 66.0568C96.5038 66.0568 96.2557 65.9953 96.0398 65.8722C95.8258 65.7472 95.6572 65.5625 95.5341 65.3182C95.4129 65.0739 95.3523 64.7718 95.3523 64.4119V61.6364H96.2017V64.3097C96.2017 64.607 96.2841 64.8437 96.4489 65.0199C96.6136 65.196 96.8277 65.2841 97.0909 65.2841C97.25 65.2841 97.4081 65.2443 97.5653 65.1648C97.7244 65.0852 97.8561 64.965 97.9602 64.804C98.0663 64.643 98.1184 64.4384 98.1165 64.1903ZM100.11 66V61.6364H100.925V62.3466H100.979C101.07 62.1061 101.219 61.9186 101.425 61.7841C101.632 61.6477 101.879 61.5795 102.167 61.5795C102.459 61.5795 102.703 61.6477 102.9 61.7841C103.099 61.9205 103.246 62.108 103.34 62.3466H103.386C103.49 62.1136 103.656 61.928 103.883 61.7898C104.11 61.6496 104.381 61.5795 104.695 61.5795C105.091 61.5795 105.414 61.7036 105.664 61.9517C105.916 62.1998 106.042 62.5739 106.042 63.0739V66H105.192V63.1534C105.192 62.858 105.112 62.6439 104.951 62.5114C104.79 62.3788 104.598 62.3125 104.374 62.3125C104.098 62.3125 103.883 62.3977 103.729 62.5682C103.576 62.7367 103.499 62.9536 103.499 63.2188V66H102.653V63.0994C102.653 62.8627 102.579 62.6723 102.431 62.5284C102.283 62.3845 102.091 62.3125 101.854 62.3125C101.693 62.3125 101.545 62.3551 101.408 62.4403C101.274 62.5237 101.165 62.6402 101.082 62.7898C101 62.9394 100.96 63.1127 100.96 63.3097V66H100.11ZM107.249 66V60.1818H108.098V62.3438H108.149C108.198 62.2528 108.269 62.1477 108.362 62.0284C108.455 61.9091 108.584 61.8049 108.749 61.7159C108.913 61.625 109.131 61.5795 109.402 61.5795C109.754 61.5795 110.069 61.6686 110.345 61.8466C110.622 62.0246 110.839 62.2812 110.996 62.6165C111.155 62.9517 111.234 63.3551 111.234 63.8267C111.234 64.2983 111.156 64.7027 110.999 65.0398C110.841 65.375 110.625 65.6335 110.351 65.8153C110.076 65.9953 109.763 66.0852 109.411 66.0852C109.145 66.0852 108.929 66.0407 108.76 65.9517C108.593 65.8627 108.463 65.7585 108.368 65.6392C108.273 65.5199 108.2 65.4138 108.149 65.321H108.078V66H107.249ZM108.081 63.8182C108.081 64.125 108.125 64.3939 108.214 64.625C108.304 64.8561 108.432 65.0369 108.601 65.1676C108.769 65.2964 108.976 65.3608 109.22 65.3608C109.474 65.3608 109.686 65.2936 109.857 65.1591C110.027 65.0227 110.156 64.8381 110.243 64.6051C110.332 64.3722 110.376 64.1098 110.376 63.8182C110.376 63.5303 110.333 63.2718 110.246 63.0426C110.161 62.8134 110.032 62.6326 109.859 62.5C109.689 62.3674 109.476 62.3011 109.22 62.3011C108.974 62.3011 108.766 62.3646 108.595 62.4915C108.427 62.6184 108.299 62.7955 108.212 63.0227C108.125 63.25 108.081 63.5152 108.081 63.8182ZM112.188 66V61.6364H113.038V66H112.188ZM112.617 60.9631C112.469 60.9631 112.343 60.9138 112.237 60.8153C112.132 60.715 112.08 60.5956 112.08 60.4574C112.08 60.3172 112.132 60.1979 112.237 60.0994C112.343 59.9991 112.469 59.9489 112.617 59.9489C112.765 59.9489 112.891 59.9991 112.995 60.0994C113.101 60.1979 113.154 60.3172 113.154 60.4574C113.154 60.5956 113.101 60.715 112.995 60.8153C112.891 60.9138 112.765 60.9631 112.617 60.9631ZM115.03 63.4091V66H114.18V61.6364H114.996V62.3466H115.05C115.15 62.1155 115.307 61.9299 115.521 61.7898C115.737 61.6496 116.009 61.5795 116.337 61.5795C116.634 61.5795 116.894 61.642 117.118 61.767C117.341 61.8902 117.515 62.0739 117.638 62.3182C117.761 62.5625 117.822 62.8646 117.822 63.2244V66H116.973V63.3267C116.973 63.0104 116.891 62.7633 116.726 62.5852C116.561 62.4053 116.335 62.3153 116.047 62.3153C115.85 62.3153 115.675 62.358 115.521 62.4432C115.37 62.5284 115.25 62.6534 115.161 62.8182C115.073 62.9811 115.03 63.178 115.03 63.4091ZM120.791 67.7273C120.445 67.7273 120.146 67.6818 119.896 67.5909C119.648 67.5 119.446 67.3797 119.288 67.2301C119.131 67.0805 119.014 66.9167 118.936 66.7386L119.666 66.4375C119.717 66.5208 119.786 66.6089 119.871 66.7017C119.958 66.7964 120.075 66.8769 120.223 66.9432C120.373 67.0095 120.565 67.0426 120.8 67.0426C121.122 67.0426 121.388 66.964 121.598 66.8068C121.808 66.6515 121.913 66.4034 121.913 66.0625V65.2045H121.859C121.808 65.2973 121.734 65.4006 121.638 65.5142C121.543 65.6278 121.412 65.7263 121.246 65.8097C121.079 65.893 120.862 65.9347 120.595 65.9347C120.25 65.9347 119.94 65.8542 119.663 65.6932C119.389 65.5303 119.171 65.2907 119.01 64.9744C118.851 64.6562 118.771 64.2652 118.771 63.8011C118.771 63.3371 118.85 62.9394 119.007 62.608C119.166 62.2765 119.384 62.0227 119.661 61.8466C119.937 61.6686 120.25 61.5795 120.601 61.5795C120.872 61.5795 121.09 61.625 121.257 61.7159C121.424 61.8049 121.554 61.9091 121.646 62.0284C121.741 62.1477 121.814 62.2528 121.865 62.3438H121.928V61.6364H122.76V66.0966C122.76 66.4716 122.673 66.7794 122.499 67.0199C122.324 67.2604 122.089 67.4384 121.791 67.554C121.496 67.6695 121.162 67.7273 120.791 67.7273ZM120.783 65.2301C121.027 65.2301 121.233 65.1733 121.402 65.0597C121.572 64.9441 121.701 64.7794 121.788 64.5653C121.877 64.3494 121.922 64.0909 121.922 63.7898C121.922 63.4962 121.878 63.2377 121.791 63.0142C121.704 62.7907 121.576 62.6165 121.408 62.4915C121.239 62.3646 121.031 62.3011 120.783 62.3011C120.527 62.3011 120.314 62.3674 120.143 62.5C119.973 62.6307 119.844 62.8087 119.757 63.0341C119.672 63.2595 119.629 63.5114 119.629 63.7898C119.629 64.0758 119.673 64.3267 119.76 64.5426C119.847 64.7585 119.976 64.9271 120.146 65.0483C120.319 65.1695 120.531 65.2301 120.783 65.2301ZM92.8445 77V72.6364H93.6655V73.3295H93.7109C93.7905 73.0947 93.9306 72.91 94.1314 72.7756C94.334 72.6392 94.5632 72.571 94.8189 72.571C94.8719 72.571 94.9344 72.5729 95.0064 72.5767C95.0803 72.5805 95.138 72.5852 95.1797 72.5909V73.4034C95.1456 73.3939 95.085 73.3835 94.9979 73.3722C94.9107 73.3589 94.8236 73.3523 94.7365 73.3523C94.5357 73.3523 94.3568 73.3949 94.1996 73.4801C94.0443 73.5634 93.9212 73.6799 93.8303 73.8295C93.7393 73.9773 93.6939 74.1458 93.6939 74.3352V77H92.8445ZM97.6392 77.0881C97.2093 77.0881 96.839 76.9962 96.5284 76.8125C96.2197 76.6269 95.9811 76.3665 95.8125 76.0312C95.6458 75.6941 95.5625 75.2992 95.5625 74.8466C95.5625 74.3996 95.6458 74.0057 95.8125 73.6648C95.9811 73.3239 96.2159 73.0578 96.517 72.8665C96.8201 72.6752 97.1742 72.5795 97.5795 72.5795C97.8258 72.5795 98.0644 72.6203 98.2955 72.7017C98.5265 72.7831 98.7339 72.911 98.9176 73.0852C99.1013 73.2595 99.2462 73.4858 99.3523 73.7642C99.4583 74.0407 99.5114 74.3769 99.5114 74.7727V75.0739H96.0426V74.4375H98.679C98.679 74.214 98.6335 74.0161 98.5426 73.8438C98.4517 73.6695 98.3239 73.5322 98.1591 73.4318C97.9962 73.3314 97.8049 73.2812 97.5852 73.2812C97.3466 73.2812 97.1383 73.34 96.9602 73.4574C96.7841 73.5729 96.6477 73.7244 96.5511 73.9119C96.4564 74.0975 96.4091 74.2992 96.4091 74.517V75.0142C96.4091 75.3059 96.4602 75.554 96.5625 75.7585C96.6667 75.9631 96.8116 76.1193 96.9972 76.2273C97.1828 76.3333 97.3996 76.3864 97.6477 76.3864C97.8087 76.3864 97.9555 76.3636 98.0881 76.3182C98.2206 76.2708 98.3352 76.2008 98.4318 76.108C98.5284 76.0152 98.6023 75.9006 98.6534 75.7642L99.4574 75.9091C99.393 76.1458 99.2775 76.3532 99.1108 76.5312C98.946 76.7074 98.7386 76.8447 98.4886 76.9432C98.2405 77.0398 97.9574 77.0881 97.6392 77.0881ZM100.454 78.6364V72.6364H101.283V73.3438H101.354C101.404 73.2528 101.475 73.1477 101.567 73.0284C101.66 72.9091 101.789 72.8049 101.954 72.7159C102.119 72.625 102.336 72.5795 102.607 72.5795C102.96 72.5795 103.274 72.6686 103.55 72.8466C103.827 73.0246 104.044 73.2812 104.201 73.6165C104.36 73.9517 104.44 74.3551 104.44 74.8267C104.44 75.2983 104.361 75.7027 104.204 76.0398C104.047 76.375 103.831 76.6335 103.556 76.8153C103.281 76.9953 102.968 77.0852 102.616 77.0852C102.351 77.0852 102.134 77.0407 101.965 76.9517C101.799 76.8627 101.668 76.7585 101.573 76.6392C101.478 76.5199 101.406 76.4138 101.354 76.321H101.303V78.6364H100.454ZM101.286 74.8182C101.286 75.125 101.331 75.3939 101.42 75.625C101.509 75.8561 101.638 76.0369 101.806 76.1676C101.975 76.2964 102.181 76.3608 102.425 76.3608C102.679 76.3608 102.891 76.2936 103.062 76.1591C103.232 76.0227 103.361 75.8381 103.448 75.6051C103.537 75.3722 103.582 75.1098 103.582 74.8182C103.582 74.5303 103.538 74.2718 103.451 74.0426C103.366 73.8134 103.237 73.6326 103.065 73.5C102.894 73.3674 102.681 73.3011 102.425 73.3011C102.179 73.3011 101.971 73.3646 101.8 73.4915C101.632 73.6184 101.504 73.7955 101.417 74.0227C101.33 74.25 101.286 74.5152 101.286 74.8182ZM106.661 77.0966C106.385 77.0966 106.135 77.0455 105.911 76.9432C105.688 76.839 105.511 76.6884 105.38 76.4915C105.251 76.2945 105.187 76.053 105.187 75.767C105.187 75.5208 105.234 75.3182 105.329 75.1591C105.424 75 105.551 74.8741 105.712 74.7812C105.873 74.6884 106.053 74.6184 106.252 74.571C106.451 74.5237 106.654 74.4877 106.86 74.4631C107.121 74.4328 107.334 74.4081 107.496 74.3892C107.659 74.3684 107.778 74.3352 107.852 74.2898C107.925 74.2443 107.962 74.1705 107.962 74.0682V74.0483C107.962 73.8002 107.892 73.608 107.752 73.4716C107.614 73.3352 107.407 73.267 107.133 73.267C106.847 73.267 106.621 73.3305 106.457 73.4574C106.294 73.5824 106.181 73.7216 106.119 73.875L105.32 73.6932C105.415 73.428 105.553 73.214 105.735 73.0511C105.919 72.8864 106.13 72.767 106.369 72.6932C106.607 72.6174 106.858 72.5795 107.121 72.5795C107.296 72.5795 107.48 72.6004 107.675 72.642C107.872 72.6818 108.056 72.7557 108.227 72.8636C108.399 72.9716 108.54 73.1259 108.65 73.3267C108.76 73.5256 108.815 73.7841 108.815 74.1023V77H107.985V76.4034H107.951C107.896 76.5133 107.814 76.6212 107.704 76.7273C107.594 76.8333 107.453 76.9214 107.281 76.9915C107.108 77.0616 106.902 77.0966 106.661 77.0966ZM106.846 76.4148C107.081 76.4148 107.281 76.3684 107.448 76.2756C107.617 76.1828 107.745 76.0616 107.832 75.9119C107.921 75.7604 107.965 75.5985 107.965 75.4261V74.8636C107.935 74.8939 107.876 74.9223 107.789 74.9489C107.704 74.9735 107.606 74.9953 107.496 75.0142C107.387 75.0312 107.28 75.0473 107.175 75.0625C107.071 75.0758 106.984 75.0871 106.914 75.0966C106.749 75.1174 106.599 75.1525 106.462 75.2017C106.328 75.2509 106.22 75.322 106.138 75.4148C106.059 75.5057 106.019 75.6269 106.019 75.7784C106.019 75.9886 106.097 76.1477 106.252 76.2557C106.407 76.3617 106.605 76.4148 106.846 76.4148ZM109.946 77V72.6364H110.795V77H109.946ZM110.375 71.9631C110.227 71.9631 110.1 71.9138 109.994 71.8153C109.89 71.715 109.838 71.5956 109.838 71.4574C109.838 71.3172 109.89 71.1979 109.994 71.0994C110.1 70.9991 110.227 70.9489 110.375 70.9489C110.523 70.9489 110.649 70.9991 110.753 71.0994C110.859 71.1979 110.912 71.3172 110.912 71.4574C110.912 71.5956 110.859 71.715 110.753 71.8153C110.649 71.9138 110.523 71.9631 110.375 71.9631ZM111.938 77V72.6364H112.759V73.3295H112.805C112.884 73.0947 113.024 72.91 113.225 72.7756C113.428 72.6392 113.657 72.571 113.913 72.571C113.966 72.571 114.028 72.5729 114.1 72.5767C114.174 72.5805 114.232 72.5852 114.273 72.5909V73.4034C114.239 73.3939 114.179 73.3835 114.092 73.3722C114.004 73.3589 113.917 73.3523 113.83 73.3523C113.629 73.3523 113.451 73.3949 113.293 73.4801C113.138 73.5634 113.015 73.6799 112.924 73.8295C112.833 73.9773 112.788 74.1458 112.788 74.3352V77H111.938ZM118.278 73.7017L117.509 73.8381C117.476 73.7396 117.425 73.6458 117.355 73.5568C117.287 73.4678 117.194 73.3949 117.077 73.3381C116.959 73.2812 116.813 73.2528 116.636 73.2528C116.396 73.2528 116.195 73.3068 116.034 73.4148C115.873 73.5208 115.793 73.6581 115.793 73.8267C115.793 73.9725 115.847 74.09 115.955 74.179C116.063 74.268 116.237 74.3409 116.477 74.3977L117.17 74.5568C117.572 74.6496 117.871 74.7926 118.068 74.9858C118.265 75.179 118.364 75.4299 118.364 75.7386C118.364 76 118.288 76.233 118.136 76.4375C117.987 76.6402 117.777 76.7992 117.509 76.9148C117.241 77.0303 116.932 77.0881 116.58 77.0881C116.091 77.0881 115.692 76.9839 115.384 76.7756C115.075 76.5653 114.885 76.267 114.815 75.8807L115.636 75.7557C115.688 75.9697 115.793 76.1316 115.952 76.2415C116.111 76.3494 116.318 76.4034 116.574 76.4034C116.852 76.4034 117.075 76.3456 117.241 76.2301C117.408 76.1127 117.491 75.9697 117.491 75.8011C117.491 75.6648 117.44 75.5502 117.338 75.4574C117.238 75.3646 117.083 75.2945 116.875 75.2472L116.136 75.0852C115.729 74.9924 115.428 74.8447 115.233 74.642C115.04 74.4394 114.943 74.1828 114.943 73.8722C114.943 73.6146 115.015 73.3892 115.159 73.196C115.303 73.0028 115.502 72.8523 115.756 72.7443C116.009 72.6345 116.3 72.5795 116.628 72.5795C117.099 72.5795 117.471 72.6818 117.741 72.8864C118.012 73.089 118.191 73.3608 118.278 73.7017Z" fill="#1A0202"/>
<path d="M22.7369 66V60.1818H24.8675C25.2804 60.1818 25.6223 60.25 25.8931 60.3864C26.1639 60.5208 26.3666 60.7036 26.5011 60.9347C26.6355 61.1638 26.7028 61.4223 26.7028 61.7102C26.7028 61.9527 26.6583 62.1572 26.5692 62.3239C26.4802 62.4886 26.3609 62.6212 26.2113 62.7216C26.0636 62.8201 25.9007 62.892 25.7227 62.9375V62.9943C25.9158 63.0038 26.1043 63.0663 26.288 63.1818C26.4736 63.2955 26.627 63.4574 26.7482 63.6676C26.8694 63.8778 26.93 64.1335 26.93 64.4347C26.93 64.732 26.86 64.9991 26.7198 65.2358C26.5816 65.4706 26.3675 65.6572 26.0778 65.7955C25.788 65.9318 25.4177 66 24.967 66H22.7369ZM23.6147 65.2472H24.8817C25.3022 65.2472 25.6033 65.1657 25.7852 65.0028C25.967 64.84 26.0579 64.6364 26.0579 64.392C26.0579 64.2083 26.0115 64.0398 25.9187 63.8864C25.8259 63.733 25.6933 63.6108 25.521 63.5199C25.3505 63.429 25.1478 63.3835 24.913 63.3835H23.6147V65.2472ZM23.6147 62.6989H24.7908C24.9878 62.6989 25.1649 62.661 25.3221 62.5852C25.4812 62.5095 25.6071 62.4034 25.6999 62.267C25.7946 62.1288 25.842 61.9659 25.842 61.7784C25.842 61.5379 25.7577 61.3362 25.5891 61.1733C25.4206 61.0104 25.1621 60.929 24.8136 60.929H23.6147V62.6989ZM29.7411 66.0881C29.332 66.0881 28.975 65.9943 28.6701 65.8068C28.3652 65.6193 28.1284 65.357 27.9599 65.0199C27.7913 64.6828 27.707 64.2888 27.707 63.8381C27.707 63.3854 27.7913 62.9896 27.9599 62.6506C28.1284 62.3116 28.3652 62.0483 28.6701 61.8608C28.975 61.6733 29.332 61.5795 29.7411 61.5795C30.1502 61.5795 30.5072 61.6733 30.8121 61.8608C31.1171 62.0483 31.3538 62.3116 31.5224 62.6506C31.6909 62.9896 31.7752 63.3854 31.7752 63.8381C31.7752 64.2888 31.6909 64.6828 31.5224 65.0199C31.3538 65.357 31.1171 65.6193 30.8121 65.8068C30.5072 65.9943 30.1502 66.0881 29.7411 66.0881ZM29.744 65.375C30.0091 65.375 30.2288 65.3049 30.4031 65.1648C30.5773 65.0246 30.7061 64.8381 30.7894 64.6051C30.8746 64.3722 30.9173 64.1155 30.9173 63.8352C30.9173 63.5568 30.8746 63.3011 30.7894 63.0682C30.7061 62.8333 30.5773 62.6449 30.4031 62.5028C30.2288 62.3608 30.0091 62.2898 29.744 62.2898C29.4769 62.2898 29.2553 62.3608 29.0792 62.5028C28.9049 62.6449 28.7752 62.8333 28.69 63.0682C28.6067 63.3011 28.565 63.5568 28.565 63.8352C28.565 64.1155 28.6067 64.3722 28.69 64.6051C28.7752 64.8381 28.9049 65.0246 29.0792 65.1648C29.2553 65.3049 29.4769 65.375 29.744 65.375ZM32.7234 66V61.6364H33.5728V66H32.7234ZM33.1523 60.9631C33.0046 60.9631 32.8777 60.9138 32.7717 60.8153C32.6675 60.715 32.6154 60.5956 32.6154 60.4574C32.6154 60.3172 32.6675 60.1979 32.7717 60.0994C32.8777 59.9991 33.0046 59.9489 33.1523 59.9489C33.3001 59.9489 33.426 59.9991 33.5302 60.0994C33.6362 60.1979 33.6893 60.3172 33.6893 60.4574C33.6893 60.5956 33.6362 60.715 33.5302 60.8153C33.426 60.9138 33.3001 60.9631 33.1523 60.9631ZM35.565 60.1818V66H34.7156V60.1818H35.565ZM38.5884 66.0881C38.1585 66.0881 37.7882 65.9962 37.4776 65.8125C37.1689 65.6269 36.9303 65.3665 36.7617 65.0312C36.5951 64.6941 36.5117 64.2992 36.5117 63.8466C36.5117 63.3996 36.5951 63.0057 36.7617 62.6648C36.9303 62.3239 37.1651 62.0578 37.4663 61.8665C37.7693 61.6752 38.1235 61.5795 38.5288 61.5795C38.775 61.5795 39.0136 61.6203 39.2447 61.7017C39.4757 61.7831 39.6831 61.911 39.8668 62.0852C40.0505 62.2595 40.1954 62.4858 40.3015 62.7642C40.4076 63.0407 40.4606 63.3769 40.4606 63.7727V64.0739H36.9918V63.4375H39.6282C39.6282 63.214 39.5827 63.0161 39.4918 62.8438C39.4009 62.6695 39.2731 62.5322 39.1083 62.4318C38.9454 62.3314 38.7541 62.2812 38.5344 62.2812C38.2958 62.2812 38.0875 62.34 37.9094 62.4574C37.7333 62.5729 37.5969 62.7244 37.5004 62.9119C37.4057 63.0975 37.3583 63.2992 37.3583 63.517V64.0142C37.3583 64.3059 37.4094 64.554 37.5117 64.7585C37.6159 64.9631 37.7608 65.1193 37.9464 65.2273C38.132 65.3333 38.3488 65.3864 38.5969 65.3864C38.7579 65.3864 38.9047 65.3636 39.0373 65.3182C39.1699 65.2708 39.2844 65.2008 39.381 65.108C39.4776 65.0152 39.5515 64.9006 39.6026 64.7642L40.4066 64.9091C40.3422 65.1458 40.2267 65.3532 40.06 65.5312C39.8952 65.7074 39.6879 65.8447 39.4379 65.9432C39.1897 66.0398 38.9066 66.0881 38.5884 66.0881ZM41.4031 66V61.6364H42.2241V62.3295H42.2695C42.3491 62.0947 42.4892 61.91 42.69 61.7756C42.8926 61.6392 43.1218 61.571 43.3775 61.571C43.4305 61.571 43.493 61.5729 43.565 61.5767C43.6388 61.5805 43.6966 61.5852 43.7383 61.5909V62.4034C43.7042 62.3939 43.6436 62.3835 43.5565 62.3722C43.4693 62.3589 43.3822 62.3523 43.2951 62.3523C43.0943 62.3523 42.9154 62.3949 42.7582 62.4801C42.6029 62.5634 42.4798 62.6799 42.3888 62.8295C42.2979 62.9773 42.2525 63.1458 42.2525 63.3352V66H41.4031ZM20.3445 77V72.6364H21.1655V73.3295H21.2109C21.2905 73.0947 21.4306 72.91 21.6314 72.7756C21.834 72.6392 22.0632 72.571 22.3189 72.571C22.3719 72.571 22.4344 72.5729 22.5064 72.5767C22.5803 72.5805 22.638 72.5852 22.6797 72.5909V73.4034C22.6456 73.3939 22.585 73.3835 22.4979 73.3722C22.4107 73.3589 22.3236 73.3523 22.2365 73.3523C22.0357 73.3523 21.8568 73.3949 21.6996 73.4801C21.5443 73.5634 21.4212 73.6799 21.3303 73.8295C21.2393 73.9773 21.1939 74.1458 21.1939 74.3352V77H20.3445ZM25.1392 77.0881C24.7093 77.0881 24.339 76.9962 24.0284 76.8125C23.7197 76.6269 23.4811 76.3665 23.3125 76.0312C23.1458 75.6941 23.0625 75.2992 23.0625 74.8466C23.0625 74.3996 23.1458 74.0057 23.3125 73.6648C23.4811 73.3239 23.7159 73.0578 24.017 72.8665C24.3201 72.6752 24.6742 72.5795 25.0795 72.5795C25.3258 72.5795 25.5644 72.6203 25.7955 72.7017C26.0265 72.7831 26.2339 72.911 26.4176 73.0852C26.6013 73.2595 26.7462 73.4858 26.8523 73.7642C26.9583 74.0407 27.0114 74.3769 27.0114 74.7727V75.0739H23.5426V74.4375H26.179C26.179 74.214 26.1335 74.0161 26.0426 73.8438C25.9517 73.6695 25.8239 73.5322 25.6591 73.4318C25.4962 73.3314 25.3049 73.2812 25.0852 73.2812C24.8466 73.2812 24.6383 73.34 24.4602 73.4574C24.2841 73.5729 24.1477 73.7244 24.0511 73.9119C23.9564 74.0975 23.9091 74.2992 23.9091 74.517V75.0142C23.9091 75.3059 23.9602 75.554 24.0625 75.7585C24.1667 75.9631 24.3116 76.1193 24.4972 76.2273C24.6828 76.3333 24.8996 76.3864 25.1477 76.3864C25.3087 76.3864 25.4555 76.3636 25.5881 76.3182C25.7206 76.2708 25.8352 76.2008 25.9318 76.108C26.0284 76.0152 26.1023 75.9006 26.1534 75.7642L26.9574 75.9091C26.893 76.1458 26.7775 76.3532 26.6108 76.5312C26.446 76.7074 26.2386 76.8447 25.9886 76.9432C25.7405 77.0398 25.4574 77.0881 25.1392 77.0881ZM27.9538 78.6364V72.6364H28.7834V73.3438H28.8544C28.9036 73.2528 28.9747 73.1477 29.0675 73.0284C29.1603 72.9091 29.2891 72.8049 29.4538 72.7159C29.6186 72.625 29.8364 72.5795 30.1072 72.5795C30.4595 72.5795 30.7739 72.6686 31.0504 72.8466C31.3269 73.0246 31.5438 73.2812 31.701 73.6165C31.8601 73.9517 31.9396 74.3551 31.9396 74.8267C31.9396 75.2983 31.861 75.7027 31.7038 76.0398C31.5466 76.375 31.3307 76.6335 31.0561 76.8153C30.7815 76.9953 30.468 77.0852 30.1158 77.0852C29.8506 77.0852 29.6338 77.0407 29.4652 76.9517C29.2985 76.8627 29.1679 76.7585 29.0732 76.6392C28.9785 76.5199 28.9055 76.4138 28.8544 76.321H28.8033V78.6364H27.9538ZM28.7862 74.8182C28.7862 75.125 28.8307 75.3939 28.9197 75.625C29.0088 75.8561 29.1375 76.0369 29.3061 76.1676C29.4747 76.2964 29.6811 76.3608 29.9254 76.3608C30.1792 76.3608 30.3913 76.2936 30.5618 76.1591C30.7322 76.0227 30.861 75.8381 30.9482 75.6051C31.0372 75.3722 31.0817 75.1098 31.0817 74.8182C31.0817 74.5303 31.0381 74.2718 30.951 74.0426C30.8658 73.8134 30.737 73.6326 30.5646 73.5C30.3942 73.3674 30.1811 73.3011 29.9254 73.3011C29.6792 73.3011 29.4709 73.3646 29.3004 73.4915C29.1319 73.6184 29.004 73.7955 28.9169 74.0227C28.8298 74.25 28.7862 74.5152 28.7862 74.8182ZM34.1612 77.0966C33.8847 77.0966 33.6347 77.0455 33.4112 76.9432C33.1877 76.839 33.0107 76.6884 32.88 76.4915C32.7512 76.2945 32.6868 76.053 32.6868 75.767C32.6868 75.5208 32.7341 75.3182 32.8288 75.1591C32.9235 75 33.0514 74.8741 33.2124 74.7812C33.3733 74.6884 33.5533 74.6184 33.7521 74.571C33.951 74.5237 34.1536 74.4877 34.3601 74.4631C34.6214 74.4328 34.8336 74.4081 34.9964 74.3892C35.1593 74.3684 35.2777 74.3352 35.3516 74.2898C35.4254 74.2443 35.4624 74.1705 35.4624 74.0682V74.0483C35.4624 73.8002 35.3923 73.608 35.2521 73.4716C35.1139 73.3352 34.9074 73.267 34.6328 73.267C34.3468 73.267 34.1214 73.3305 33.9567 73.4574C33.7938 73.5824 33.6811 73.7216 33.6186 73.875L32.8203 73.6932C32.915 73.428 33.0533 73.214 33.2351 73.0511C33.4188 72.8864 33.63 72.767 33.8686 72.6932C34.1072 72.6174 34.3582 72.5795 34.6214 72.5795C34.7957 72.5795 34.9804 72.6004 35.1754 72.642C35.3724 72.6818 35.5561 72.7557 35.7266 72.8636C35.8989 72.9716 36.04 73.1259 36.1499 73.3267C36.2597 73.5256 36.3146 73.7841 36.3146 74.1023V77H35.4851V76.4034H35.451C35.3961 76.5133 35.3137 76.6212 35.2038 76.7273C35.094 76.8333 34.9529 76.9214 34.7805 76.9915C34.6082 77.0616 34.4018 77.0966 34.1612 77.0966ZM34.3459 76.4148C34.5807 76.4148 34.7815 76.3684 34.9482 76.2756C35.1167 76.1828 35.2446 76.0616 35.3317 75.9119C35.4207 75.7604 35.4652 75.5985 35.4652 75.4261V74.8636C35.4349 74.8939 35.3762 74.9223 35.2891 74.9489C35.2038 74.9735 35.1063 74.9953 34.9964 75.0142C34.8866 75.0312 34.7796 75.0473 34.6754 75.0625C34.5713 75.0758 34.4841 75.0871 34.4141 75.0966C34.2493 75.1174 34.0987 75.1525 33.9624 75.2017C33.8279 75.2509 33.7199 75.322 33.6385 75.4148C33.5589 75.5057 33.5192 75.6269 33.5192 75.7784C33.5192 75.9886 33.5968 76.1477 33.7521 76.2557C33.9074 76.3617 34.1054 76.4148 34.3459 76.4148ZM37.446 77V72.6364H38.2955V77H37.446ZM37.875 71.9631C37.7273 71.9631 37.6004 71.9138 37.4943 71.8153C37.3902 71.715 37.3381 71.5956 37.3381 71.4574C37.3381 71.3172 37.3902 71.1979 37.4943 71.0994C37.6004 70.9991 37.7273 70.9489 37.875 70.9489C38.0227 70.9489 38.1487 70.9991 38.2528 71.0994C38.3589 71.1979 38.4119 71.3172 38.4119 71.4574C38.4119 71.5956 38.3589 71.715 38.2528 71.8153C38.1487 71.9138 38.0227 71.9631 37.875 71.9631ZM39.4382 77V72.6364H40.2592V73.3295H40.3047C40.3842 73.0947 40.5244 72.91 40.7251 72.7756C40.9278 72.6392 41.157 72.571 41.4126 72.571C41.4657 72.571 41.5282 72.5729 41.6001 72.5767C41.674 72.5805 41.7318 72.5852 41.7734 72.5909V73.4034C41.7393 73.3939 41.6787 73.3835 41.5916 73.3722C41.5045 73.3589 41.4174 73.3523 41.3303 73.3523C41.1295 73.3523 40.9505 73.3949 40.7933 73.4801C40.638 73.5634 40.5149 73.6799 40.424 73.8295C40.3331 73.9773 40.2876 74.1458 40.2876 74.3352V77H39.4382ZM45.7784 73.7017L45.0085 73.8381C44.9763 73.7396 44.9252 73.6458 44.8551 73.5568C44.7869 73.4678 44.6941 73.3949 44.5767 73.3381C44.4593 73.2812 44.3125 73.2528 44.1364 73.2528C43.8958 73.2528 43.6951 73.3068 43.5341 73.4148C43.3731 73.5208 43.2926 73.6581 43.2926 73.8267C43.2926 73.9725 43.3466 74.09 43.4545 74.179C43.5625 74.268 43.7367 74.3409 43.9773 74.3977L44.6705 74.5568C45.072 74.6496 45.3712 74.7926 45.5682 74.9858C45.7652 75.179 45.8636 75.4299 45.8636 75.7386C45.8636 76 45.7879 76.233 45.6364 76.4375C45.4867 76.6402 45.2775 76.7992 45.0085 76.9148C44.7415 77.0303 44.4318 77.0881 44.0795 77.0881C43.5909 77.0881 43.1922 76.9839 42.8835 76.7756C42.5748 76.5653 42.3854 76.267 42.3153 75.8807L43.1364 75.7557C43.1875 75.9697 43.2926 76.1316 43.4517 76.2415C43.6108 76.3494 43.8182 76.4034 44.0739 76.4034C44.3523 76.4034 44.5748 76.3456 44.7415 76.2301C44.9081 76.1127 44.9915 75.9697 44.9915 75.8011C44.9915 75.6648 44.9403 75.5502 44.8381 75.4574C44.7377 75.3646 44.5833 75.2945 44.375 75.2472L43.6364 75.0852C43.2292 74.9924 42.928 74.8447 42.733 74.642C42.5398 74.4394 42.4432 74.1828 42.4432 73.8722C42.4432 73.6146 42.5152 73.3892 42.6591 73.196C42.803 73.0028 43.0019 72.8523 43.2557 72.7443C43.5095 72.6345 43.8002 72.5795 44.1278 72.5795C44.5994 72.5795 44.9706 72.6818 45.2415 72.8864C45.5123 73.089 45.6913 73.3608 45.7784 73.7017Z" fill="#1A0202"/>
<g filter="url(#filter0_d_373_3)">
<ellipse cx="33.6801" cy="26.1171" rx="29.6801" ry="26.1171" fill="white"/>
<path d="M63.1102 26.1171C63.1102 40.3741 49.9649 51.9843 33.6801 51.9843C17.3953 51.9843 4.25 40.3741 4.25 26.1171C4.25 11.8602 17.3953 0.25 33.6801 0.25C49.9649 0.25 63.1102 11.8602 63.1102 26.1171Z" stroke="black" stroke-opacity="0.13" stroke-width="0.5"/>
</g>
<g filter="url(#filter1_d_373_3)">
<ellipse cx="33.6801" cy="109.585" rx="29.6801" ry="26.1171" fill="white"/>
<path d="M63.1102 109.585C63.1102 123.842 49.9649 135.452 33.6801 135.452C17.3953 135.452 4.25 123.842 4.25 109.585C4.25 95.328 17.3953 83.7178 33.6801 83.7178C49.9649 83.7178 63.1102 95.328 63.1102 109.585Z" stroke="black" stroke-opacity="0.13" stroke-width="0.5"/>
</g>
<g filter="url(#filter2_d_373_3)">
<ellipse cx="179.912" cy="109.854" rx="29.6801" ry="26.1171" fill="white"/>
<path d="M209.342 109.854C209.342 124.111 196.197 135.722 179.912 135.722C163.627 135.722 150.482 124.111 150.482 109.854C150.482 95.5975 163.627 83.9873 179.912 83.9873C196.197 83.9873 209.342 95.5975 209.342 109.854Z" stroke="black" stroke-opacity="0.13" stroke-width="0.5"/>
</g>
<g filter="url(#filter3_d_373_3)">
<ellipse cx="106.291" cy="27.937" rx="29.6801" ry="26.1171" fill="white"/>
<path d="M135.721 27.937C135.721 42.1939 122.576 53.8041 106.291 53.8041C90.0066 53.8041 76.8613 42.1939 76.8613 27.937C76.8613 13.68 90.0066 2.06982 106.291 2.06982C122.576 2.06982 135.721 13.68 135.721 27.937Z" stroke="black" stroke-opacity="0.13" stroke-width="0.5"/>
</g>
<path d="M24.7754 16.5081V38.7312C31.5879 40.2374 39.5609 39.3588 42.6958 38.7312V16.0142C42.559 14.6314 41.1796 13.2569 40.5071 12.7425C39.057 12.0264 35.799 11.8062 34.3512 11.7856C31.4511 11.7856 28.5601 12.4235 27.4771 12.7425C25.7535 13.0635 24.9578 15.3866 24.7754 16.5081Z" fill="#3C4652"/>
<ellipse cx="34.18" cy="19.9332" rx="3.04373" ry="2.77789" fill="white"/>
<ellipse rx="0.705367" ry="0.796685" transform="matrix(0.76616 -0.642649 0.717402 0.696659 34.5324 20.7052)" fill="#126EB8"/>
<path d="M32.2986 18.5359L34.9614 20.1579L33.8963 21.0514L32.2986 18.5359Z" fill="#126EB8"/>
<ellipse cx="33.9753" cy="39.6264" rx="3.79612" ry="2.16058" fill="#3C4652"/>
<path d="M24.2567 109.446C21.6658 116.034 27.2462 119.573 30.3603 120.519C27.9936 119.676 27.3085 115.657 27.8691 114.701C28.3175 113.937 29.9036 110.673 30.6406 109.137C31.936 109.744 32.5713 111.807 32.727 112.762C34.9442 110.356 35.2079 105.951 35.0626 104.05C35.8349 104.05 37.9379 106.635 38.8929 107.928C42.6547 114.179 39.2562 118.927 37.0867 120.519C39.0797 120.519 41.1558 118.908 41.9447 118.102C45.3826 114.662 43.9792 109.212 42.8478 106.916C42.9931 108.05 43.1592 109.592 42.6609 106.692C42.1627 103.791 35.2702 97.5012 31.8862 94.7188C31.2136 98.3387 28.5542 102.448 27.3085 104.05C26.3618 105.399 24.8795 108.209 24.2567 109.446Z" fill="#3C4652"/>
<ellipse rx="0.778274" ry="1.68696" transform="matrix(0.998613 -0.0526607 0.0646055 0.997911 42.226 107.798)" fill="#3C4652"/>
<rect x="26" y="124" width="19" height="2" rx="1" fill="#2B77C2"/>
<path d="M97.0146 147.074H96.1282C96.0941 146.884 96.0307 146.718 95.9379 146.574C95.8451 146.43 95.7314 146.308 95.5969 146.207C95.4625 146.107 95.3119 146.031 95.1452 145.98C94.9805 145.929 94.8053 145.903 94.6197 145.903C94.2844 145.903 93.9843 145.988 93.7191 146.156C93.4558 146.325 93.2475 146.572 93.0941 146.898C92.9426 147.223 92.8668 147.621 92.8668 148.091C92.8668 148.564 92.9426 148.964 93.0941 149.29C93.2475 149.616 93.4568 149.862 93.7219 150.028C93.9871 150.195 94.2854 150.278 94.6168 150.278C94.8005 150.278 94.9748 150.254 95.1396 150.205C95.3062 150.153 95.4568 150.079 95.5913 149.98C95.7257 149.882 95.8394 149.761 95.9322 149.619C96.0269 149.475 96.0922 149.311 96.1282 149.125L97.0146 149.128C96.9672 149.414 96.8754 149.677 96.739 149.918C96.6045 150.156 96.4312 150.363 96.2191 150.537C96.0089 150.709 95.7683 150.843 95.4975 150.938C95.2267 151.032 94.9312 151.08 94.6112 151.08C94.1074 151.08 93.6585 150.96 93.2646 150.722C92.8706 150.481 92.56 150.137 92.3327 149.69C92.1074 149.243 91.9947 148.71 91.9947 148.091C91.9947 147.47 92.1083 146.937 92.3356 146.491C92.5629 146.045 92.8735 145.702 93.2674 145.463C93.6613 145.223 94.1093 145.102 94.6112 145.102C94.9199 145.102 95.2077 145.147 95.4748 145.236C95.7437 145.323 95.9852 145.452 96.1992 145.622C96.4132 145.791 96.5903 145.997 96.7305 146.241C96.8706 146.484 96.9653 146.761 97.0146 147.074ZM99.8775 151.088C99.4476 151.088 99.0773 150.996 98.7667 150.812C98.458 150.627 98.2193 150.366 98.0508 150.031C97.8841 149.694 97.8008 149.299 97.8008 148.847C97.8008 148.4 97.8841 148.006 98.0508 147.665C98.2193 147.324 98.4542 147.058 98.7553 146.866C99.0584 146.675 99.4125 146.58 99.8178 146.58C100.064 146.58 100.303 146.62 100.534 146.702C100.765 146.783 100.972 146.911 101.156 147.085C101.34 147.259 101.484 147.486 101.591 147.764C101.697 148.041 101.75 148.377 101.75 148.773V149.074H98.2809V148.438H100.917C100.917 148.214 100.872 148.016 100.781 147.844C100.69 147.67 100.562 147.532 100.397 147.432C100.234 147.331 100.043 147.281 99.8235 147.281C99.5849 147.281 99.3765 147.34 99.1985 147.457C99.0224 147.573 98.886 147.724 98.7894 147.912C98.6947 148.098 98.6474 148.299 98.6474 148.517V149.014C98.6474 149.306 98.6985 149.554 98.8008 149.759C98.9049 149.963 99.0498 150.119 99.2354 150.227C99.421 150.333 99.6379 150.386 99.886 150.386C100.047 150.386 100.194 150.364 100.326 150.318C100.459 150.271 100.574 150.201 100.67 150.108C100.767 150.015 100.841 149.901 100.892 149.764L101.696 149.909C101.631 150.146 101.516 150.353 101.349 150.531C101.184 150.707 100.977 150.845 100.727 150.943C100.479 151.04 100.196 151.088 99.8775 151.088ZM103.542 148.409V151H102.692V146.636H103.507V147.347H103.561C103.662 147.116 103.819 146.93 104.033 146.79C104.249 146.65 104.521 146.58 104.848 146.58C105.146 146.58 105.406 146.642 105.63 146.767C105.853 146.89 106.026 147.074 106.15 147.318C106.273 147.562 106.334 147.865 106.334 148.224V151H105.485V148.327C105.485 148.01 105.402 147.763 105.238 147.585C105.073 147.405 104.846 147.315 104.559 147.315C104.362 147.315 104.186 147.358 104.033 147.443C103.882 147.528 103.761 147.653 103.672 147.818C103.585 147.981 103.542 148.178 103.542 148.409ZM109.51 146.636V147.318H107.127V146.636H109.51ZM107.766 145.591H108.615V149.719C108.615 149.884 108.64 150.008 108.689 150.091C108.739 150.172 108.802 150.228 108.88 150.259C108.959 150.287 109.045 150.301 109.138 150.301C109.206 150.301 109.266 150.296 109.317 150.287C109.368 150.277 109.408 150.27 109.436 150.264L109.59 150.966C109.541 150.985 109.471 151.004 109.38 151.023C109.289 151.044 109.175 151.055 109.039 151.057C108.815 151.061 108.607 151.021 108.414 150.938C108.221 150.854 108.064 150.725 107.945 150.551C107.826 150.377 107.766 150.158 107.766 149.895V145.591ZM110.45 151V146.636H111.271V147.33H111.316C111.396 147.095 111.536 146.91 111.737 146.776C111.94 146.639 112.169 146.571 112.424 146.571C112.477 146.571 112.54 146.573 112.612 146.577C112.686 146.58 112.743 146.585 112.785 146.591V147.403C112.751 147.394 112.69 147.384 112.603 147.372C112.516 147.359 112.429 147.352 112.342 147.352C112.141 147.352 111.962 147.395 111.805 147.48C111.65 147.563 111.527 147.68 111.436 147.83C111.345 147.977 111.299 148.146 111.299 148.335V151H110.45ZM114.751 151.097C114.475 151.097 114.225 151.045 114.001 150.943C113.778 150.839 113.6 150.688 113.47 150.491C113.341 150.295 113.277 150.053 113.277 149.767C113.277 149.521 113.324 149.318 113.419 149.159C113.513 149 113.641 148.874 113.802 148.781C113.963 148.688 114.143 148.618 114.342 148.571C114.541 148.524 114.743 148.488 114.95 148.463C115.211 148.433 115.423 148.408 115.586 148.389C115.749 148.368 115.868 148.335 115.941 148.29C116.015 148.244 116.052 148.17 116.052 148.068V148.048C116.052 147.8 115.982 147.608 115.842 147.472C115.704 147.335 115.497 147.267 115.223 147.267C114.937 147.267 114.711 147.33 114.547 147.457C114.384 147.582 114.271 147.722 114.208 147.875L113.41 147.693C113.505 147.428 113.643 147.214 113.825 147.051C114.009 146.886 114.22 146.767 114.458 146.693C114.697 146.617 114.948 146.58 115.211 146.58C115.386 146.58 115.57 146.6 115.765 146.642C115.962 146.682 116.146 146.756 116.316 146.864C116.489 146.972 116.63 147.126 116.74 147.327C116.85 147.526 116.904 147.784 116.904 148.102V151H116.075V150.403H116.041C115.986 150.513 115.904 150.621 115.794 150.727C115.684 150.833 115.543 150.921 115.37 150.991C115.198 151.062 114.992 151.097 114.751 151.097ZM114.936 150.415C115.171 150.415 115.371 150.368 115.538 150.276C115.707 150.183 115.834 150.062 115.922 149.912C116.011 149.76 116.055 149.598 116.055 149.426V148.864C116.025 148.894 115.966 148.922 115.879 148.949C115.794 148.973 115.696 148.995 115.586 149.014C115.476 149.031 115.369 149.047 115.265 149.062C115.161 149.076 115.074 149.087 115.004 149.097C114.839 149.117 114.689 149.152 114.552 149.202C114.418 149.251 114.31 149.322 114.228 149.415C114.149 149.506 114.109 149.627 114.109 149.778C114.109 149.989 114.187 150.148 114.342 150.256C114.497 150.362 114.695 150.415 114.936 150.415ZM118.885 145.182V151H118.036V145.182H118.885ZM91.2017 162V156.182H92.0795V158.71H94.9801V156.182H95.8608V162H94.9801V159.463H92.0795V162H91.2017ZM98.9517 162.088C98.5218 162.088 98.1515 161.996 97.8409 161.812C97.5322 161.627 97.2936 161.366 97.125 161.031C96.9583 160.694 96.875 160.299 96.875 159.847C96.875 159.4 96.9583 159.006 97.125 158.665C97.2936 158.324 97.5284 158.058 97.8295 157.866C98.1326 157.675 98.4867 157.58 98.892 157.58C99.1383 157.58 99.3769 157.62 99.608 157.702C99.839 157.783 100.046 157.911 100.23 158.085C100.414 158.259 100.559 158.486 100.665 158.764C100.771 159.041 100.824 159.377 100.824 159.773V160.074H97.3551V159.438H99.9915C99.9915 159.214 99.946 159.016 99.8551 158.844C99.7642 158.67 99.6364 158.532 99.4716 158.432C99.3087 158.331 99.1174 158.281 98.8977 158.281C98.6591 158.281 98.4508 158.34 98.2727 158.457C98.0966 158.573 97.9602 158.724 97.8636 158.912C97.7689 159.098 97.7216 159.299 97.7216 159.517V160.014C97.7216 160.306 97.7727 160.554 97.875 160.759C97.9792 160.963 98.1241 161.119 98.3097 161.227C98.4953 161.333 98.7121 161.386 98.9602 161.386C99.1212 161.386 99.268 161.364 99.4006 161.318C99.5331 161.271 99.6477 161.201 99.7443 161.108C99.8409 161.015 99.9148 160.901 99.9659 160.764L100.77 160.909C100.705 161.146 100.59 161.353 100.423 161.531C100.259 161.707 100.051 161.845 99.8011 161.943C99.553 162.04 99.2699 162.088 98.9517 162.088ZM103.036 162.097C102.76 162.097 102.51 162.045 102.286 161.943C102.063 161.839 101.886 161.688 101.755 161.491C101.626 161.295 101.562 161.053 101.562 160.767C101.562 160.521 101.609 160.318 101.704 160.159C101.799 160 101.926 159.874 102.087 159.781C102.248 159.688 102.428 159.618 102.627 159.571C102.826 159.524 103.029 159.488 103.235 159.463C103.496 159.433 103.709 159.408 103.871 159.389C104.034 159.368 104.153 159.335 104.227 159.29C104.3 159.244 104.337 159.17 104.337 159.068V159.048C104.337 158.8 104.267 158.608 104.127 158.472C103.989 158.335 103.782 158.267 103.508 158.267C103.222 158.267 102.996 158.33 102.832 158.457C102.669 158.582 102.556 158.722 102.494 158.875L101.695 158.693C101.79 158.428 101.928 158.214 102.11 158.051C102.294 157.886 102.505 157.767 102.744 157.693C102.982 157.617 103.233 157.58 103.496 157.58C103.671 157.58 103.855 157.6 104.05 157.642C104.247 157.682 104.431 157.756 104.602 157.864C104.774 157.972 104.915 158.126 105.025 158.327C105.135 158.526 105.19 158.784 105.19 159.102V162H104.36V161.403H104.326C104.271 161.513 104.189 161.621 104.079 161.727C103.969 161.833 103.828 161.921 103.656 161.991C103.483 162.062 103.277 162.097 103.036 162.097ZM103.221 161.415C103.456 161.415 103.656 161.368 103.823 161.276C103.992 161.183 104.12 161.062 104.207 160.912C104.296 160.76 104.34 160.598 104.34 160.426V159.864C104.31 159.894 104.251 159.922 104.164 159.949C104.079 159.973 103.981 159.995 103.871 160.014C103.762 160.031 103.655 160.047 103.55 160.062C103.446 160.076 103.359 160.087 103.289 160.097C103.124 160.117 102.974 160.152 102.837 160.202C102.703 160.251 102.595 160.322 102.513 160.415C102.434 160.506 102.394 160.627 102.394 160.778C102.394 160.989 102.472 161.148 102.627 161.256C102.782 161.362 102.98 161.415 103.221 161.415ZM108.358 157.636V158.318H105.974V157.636H108.358ZM106.614 156.591H107.463V160.719C107.463 160.884 107.488 161.008 107.537 161.091C107.586 161.172 107.65 161.228 107.727 161.259C107.807 161.287 107.893 161.301 107.986 161.301C108.054 161.301 108.114 161.296 108.165 161.287C108.216 161.277 108.256 161.27 108.284 161.264L108.438 161.966C108.388 161.985 108.318 162.004 108.227 162.023C108.136 162.044 108.023 162.055 107.886 162.057C107.663 162.061 107.455 162.021 107.261 161.938C107.068 161.854 106.912 161.725 106.793 161.551C106.673 161.377 106.614 161.158 106.614 160.895V156.591ZM109.298 162V157.636H110.147V162H109.298ZM109.727 156.963C109.579 156.963 109.452 156.914 109.346 156.815C109.242 156.715 109.19 156.596 109.19 156.457C109.19 156.317 109.242 156.198 109.346 156.099C109.452 155.999 109.579 155.949 109.727 155.949C109.874 155.949 110 155.999 110.104 156.099C110.21 156.198 110.263 156.317 110.263 156.457C110.263 156.596 110.21 156.715 110.104 156.815C110 156.914 109.874 156.963 109.727 156.963ZM112.139 159.409V162H111.29V157.636H112.105V158.347H112.159C112.259 158.116 112.417 157.93 112.631 157.79C112.847 157.65 113.118 157.58 113.446 157.58C113.743 157.58 114.004 157.642 114.227 157.767C114.451 157.89 114.624 158.074 114.747 158.318C114.87 158.562 114.932 158.865 114.932 159.224V162H114.082V159.327C114.082 159.01 114 158.763 113.835 158.585C113.67 158.405 113.444 158.315 113.156 158.315C112.959 158.315 112.784 158.358 112.631 158.443C112.479 158.528 112.359 158.653 112.27 158.818C112.183 158.981 112.139 159.178 112.139 159.409ZM117.901 163.727C117.554 163.727 117.256 163.682 117.006 163.591C116.758 163.5 116.555 163.38 116.398 163.23C116.241 163.08 116.123 162.917 116.045 162.739L116.776 162.438C116.827 162.521 116.895 162.609 116.98 162.702C117.067 162.796 117.185 162.877 117.332 162.943C117.482 163.009 117.674 163.043 117.909 163.043C118.231 163.043 118.497 162.964 118.707 162.807C118.918 162.652 119.023 162.403 119.023 162.062V161.205H118.969C118.918 161.297 118.844 161.401 118.747 161.514C118.652 161.628 118.522 161.726 118.355 161.81C118.188 161.893 117.972 161.935 117.705 161.935C117.36 161.935 117.049 161.854 116.773 161.693C116.498 161.53 116.28 161.291 116.119 160.974C115.96 160.656 115.881 160.265 115.881 159.801C115.881 159.337 115.959 158.939 116.116 158.608C116.276 158.277 116.493 158.023 116.77 157.847C117.046 157.669 117.36 157.58 117.71 157.58C117.981 157.58 118.2 157.625 118.366 157.716C118.533 157.805 118.663 157.909 118.756 158.028C118.85 158.148 118.923 158.253 118.974 158.344H119.037V157.636H119.869V162.097C119.869 162.472 119.782 162.779 119.608 163.02C119.434 163.26 119.198 163.438 118.901 163.554C118.605 163.67 118.272 163.727 117.901 163.727ZM117.892 161.23C118.136 161.23 118.343 161.173 118.511 161.06C118.682 160.944 118.811 160.779 118.898 160.565C118.987 160.349 119.031 160.091 119.031 159.79C119.031 159.496 118.988 159.238 118.901 159.014C118.813 158.791 118.686 158.616 118.517 158.491C118.348 158.365 118.14 158.301 117.892 158.301C117.636 158.301 117.423 158.367 117.253 158.5C117.082 158.631 116.954 158.809 116.866 159.034C116.781 159.259 116.739 159.511 116.739 159.79C116.739 160.076 116.782 160.327 116.869 160.543C116.956 160.759 117.085 160.927 117.256 161.048C117.428 161.17 117.64 161.23 117.892 161.23Z" fill="#1A0202"/>
<path d="M157.639 68V62.1818H159.77C160.183 62.1818 160.525 62.25 160.795 62.3864C161.066 62.5208 161.269 62.7036 161.403 62.9347C161.538 63.1638 161.605 63.4223 161.605 63.7102C161.605 63.9527 161.561 64.1572 161.472 64.3239C161.383 64.4886 161.263 64.6212 161.114 64.7216C160.966 64.8201 160.803 64.892 160.625 64.9375V64.9943C160.818 65.0038 161.007 65.0663 161.19 65.1818C161.376 65.2955 161.529 65.4574 161.651 65.6676C161.772 65.8778 161.832 66.1335 161.832 66.4347C161.832 66.732 161.762 66.9991 161.622 67.2358C161.484 67.4706 161.27 67.6572 160.98 67.7955C160.69 67.9318 160.32 68 159.869 68H157.639ZM158.517 67.2472H159.784C160.205 67.2472 160.506 67.1657 160.688 67.0028C160.869 66.84 160.96 66.6364 160.96 66.392C160.96 66.2083 160.914 66.0398 160.821 65.8864C160.728 65.733 160.596 65.6108 160.423 65.5199C160.253 65.429 160.05 65.3835 159.815 65.3835H158.517V67.2472ZM158.517 64.6989H159.693C159.89 64.6989 160.067 64.661 160.224 64.5852C160.384 64.5095 160.509 64.4034 160.602 64.267C160.697 64.1288 160.744 63.9659 160.744 63.7784C160.744 63.5379 160.66 63.3362 160.491 63.1733C160.323 63.0104 160.064 62.929 159.716 62.929H158.517V64.6989ZM164.075 68.0966C163.799 68.0966 163.549 68.0455 163.325 67.9432C163.102 67.839 162.925 67.6884 162.794 67.4915C162.665 67.2945 162.601 67.053 162.601 66.767C162.601 66.5208 162.648 66.3182 162.743 66.1591C162.838 66 162.965 65.8741 163.126 65.7812C163.287 65.6884 163.467 65.6184 163.666 65.571C163.865 65.5237 164.068 65.4877 164.274 65.4631C164.536 65.4328 164.748 65.4081 164.911 65.3892C165.073 65.3684 165.192 65.3352 165.266 65.2898C165.339 65.2443 165.376 65.1705 165.376 65.0682V65.0483C165.376 64.8002 165.306 64.608 165.166 64.4716C165.028 64.3352 164.821 64.267 164.547 64.267C164.261 64.267 164.036 64.3305 163.871 64.4574C163.708 64.5824 163.595 64.7216 163.533 64.875L162.734 64.6932C162.829 64.428 162.967 64.214 163.149 64.0511C163.333 63.8864 163.544 63.767 163.783 63.6932C164.021 63.6174 164.272 63.5795 164.536 63.5795C164.71 63.5795 164.894 63.6004 165.089 63.642C165.286 63.6818 165.47 63.7557 165.641 63.8636C165.813 63.9716 165.954 64.1259 166.064 64.3267C166.174 64.5256 166.229 64.7841 166.229 65.1023V68H165.399V67.4034H165.365C165.31 67.5133 165.228 67.6212 165.118 67.7273C165.008 67.8333 164.867 67.9214 164.695 67.9915C164.522 68.0616 164.316 68.0966 164.075 68.0966ZM164.26 67.4148C164.495 67.4148 164.696 67.3684 164.862 67.2756C165.031 67.1828 165.159 67.0616 165.246 66.9119C165.335 66.7604 165.379 66.5985 165.379 66.4261V65.8636C165.349 65.8939 165.29 65.9223 165.203 65.9489C165.118 65.9735 165.02 65.9953 164.911 66.0142C164.801 66.0312 164.694 66.0473 164.589 66.0625C164.485 66.0758 164.398 66.0871 164.328 66.0966C164.163 66.1174 164.013 66.1525 163.876 66.2017C163.742 66.2509 163.634 66.322 163.553 66.4148C163.473 66.5057 163.433 66.6269 163.433 66.7784C163.433 66.9886 163.511 67.1477 163.666 67.2557C163.821 67.3617 164.019 67.4148 164.26 67.4148ZM169.397 63.6364V64.3182H167.013V63.6364H169.397ZM167.653 62.5909H168.502V66.7188C168.502 66.8835 168.527 67.0076 168.576 67.0909C168.625 67.1723 168.689 67.2282 168.766 67.2585C168.846 67.2869 168.932 67.3011 169.025 67.3011C169.093 67.3011 169.153 67.2964 169.204 67.2869C169.255 67.2775 169.295 67.2699 169.323 67.2642L169.477 67.9659C169.427 67.9848 169.357 68.0038 169.266 68.0227C169.175 68.0436 169.062 68.0549 168.925 68.0568C168.702 68.0606 168.494 68.0208 168.3 67.9375C168.107 67.8542 167.951 67.7254 167.832 67.5511C167.712 67.3769 167.653 67.1581 167.653 66.8949V62.5909ZM171.28 65.4091V68H170.43V62.1818H171.268V64.3466H171.322C171.425 64.1117 171.581 63.9252 171.791 63.7869C172.001 63.6487 172.276 63.5795 172.615 63.5795C172.914 63.5795 173.176 63.6411 173.399 63.7642C173.625 63.8873 173.799 64.071 173.922 64.3153C174.047 64.5578 174.109 64.8608 174.109 65.2244V68H173.26V65.3267C173.26 65.0066 173.178 64.7585 173.013 64.5824C172.848 64.4044 172.619 64.3153 172.325 64.3153C172.125 64.3153 171.945 64.358 171.786 64.4432C171.628 64.5284 171.504 64.6534 171.413 64.8182C171.324 64.9811 171.28 65.178 171.28 65.4091ZM175.243 68V63.6364H176.064V64.3295H176.109C176.189 64.0947 176.329 63.91 176.53 63.7756C176.732 63.6392 176.962 63.571 177.217 63.571C177.27 63.571 177.333 63.5729 177.405 63.5767C177.479 63.5805 177.536 63.5852 177.578 63.5909V64.4034C177.544 64.3939 177.483 64.3835 177.396 64.3722C177.309 64.3589 177.222 64.3523 177.135 64.3523C176.934 64.3523 176.755 64.3949 176.598 64.4801C176.443 64.5634 176.32 64.6799 176.229 64.8295C176.138 64.9773 176.092 65.1458 176.092 65.3352V68H175.243ZM179.995 68.0881C179.586 68.0881 179.229 67.9943 178.924 67.8068C178.619 67.6193 178.382 67.357 178.214 67.0199C178.045 66.6828 177.961 66.2888 177.961 65.8381C177.961 65.3854 178.045 64.9896 178.214 64.6506C178.382 64.3116 178.619 64.0483 178.924 63.8608C179.229 63.6733 179.586 63.5795 179.995 63.5795C180.404 63.5795 180.761 63.6733 181.066 63.8608C181.371 64.0483 181.608 64.3116 181.776 64.6506C181.945 64.9896 182.029 65.3854 182.029 65.8381C182.029 66.2888 181.945 66.6828 181.776 67.0199C181.608 67.357 181.371 67.6193 181.066 67.8068C180.761 67.9943 180.404 68.0881 179.995 68.0881ZM179.998 67.375C180.263 67.375 180.483 67.3049 180.657 67.1648C180.831 67.0246 180.96 66.8381 181.043 66.6051C181.129 66.3722 181.171 66.1155 181.171 65.8352C181.171 65.5568 181.129 65.3011 181.043 65.0682C180.96 64.8333 180.831 64.6449 180.657 64.5028C180.483 64.3608 180.263 64.2898 179.998 64.2898C179.731 64.2898 179.509 64.3608 179.333 64.5028C179.159 64.6449 179.029 64.8333 178.944 65.0682C178.861 65.3011 178.819 65.5568 178.819 65.8352C178.819 66.1155 178.861 66.3722 178.944 66.6051C179.029 66.8381 179.159 67.0246 179.333 67.1648C179.509 67.3049 179.731 67.375 179.998 67.375ZM184.815 68.0881C184.406 68.0881 184.049 67.9943 183.744 67.8068C183.439 67.6193 183.203 67.357 183.034 67.0199C182.866 66.6828 182.781 66.2888 182.781 65.8381C182.781 65.3854 182.866 64.9896 183.034 64.6506C183.203 64.3116 183.439 64.0483 183.744 63.8608C184.049 63.6733 184.406 63.5795 184.815 63.5795C185.224 63.5795 185.581 63.6733 185.886 63.8608C186.191 64.0483 186.428 64.3116 186.597 64.6506C186.765 64.9896 186.849 65.3854 186.849 65.8381C186.849 66.2888 186.765 66.6828 186.597 67.0199C186.428 67.357 186.191 67.6193 185.886 67.8068C185.581 67.9943 185.224 68.0881 184.815 68.0881ZM184.818 67.375C185.083 67.375 185.303 67.3049 185.477 67.1648C185.652 67.0246 185.78 66.8381 185.864 66.6051C185.949 66.3722 185.991 66.1155 185.991 65.8352C185.991 65.5568 185.949 65.3011 185.864 65.0682C185.78 64.8333 185.652 64.6449 185.477 64.5028C185.303 64.3608 185.083 64.2898 184.818 64.2898C184.551 64.2898 184.33 64.3608 184.153 64.5028C183.979 64.6449 183.849 64.8333 183.764 65.0682C183.681 65.3011 183.639 65.5568 183.639 65.8352C183.639 66.1155 183.681 66.3722 183.764 66.6051C183.849 66.8381 183.979 67.0246 184.153 67.1648C184.33 67.3049 184.551 67.375 184.818 67.375ZM187.798 68V63.6364H188.613V64.3466H188.667C188.758 64.1061 188.906 63.9186 189.113 63.7841C189.319 63.6477 189.567 63.5795 189.854 63.5795C190.146 63.5795 190.39 63.6477 190.587 63.7841C190.786 63.9205 190.933 64.108 191.028 64.3466H191.073C191.177 64.1136 191.343 63.928 191.57 63.7898C191.798 63.6496 192.068 63.5795 192.383 63.5795C192.779 63.5795 193.102 63.7036 193.352 63.9517C193.603 64.1998 193.729 64.5739 193.729 65.0739V68H192.88V65.1534C192.88 64.858 192.799 64.6439 192.638 64.5114C192.478 64.3788 192.285 64.3125 192.062 64.3125C191.785 64.3125 191.57 64.3977 191.417 64.5682C191.263 64.7367 191.187 64.9536 191.187 65.2188V68H190.34V65.0994C190.34 64.8627 190.266 64.6723 190.119 64.5284C189.971 64.3845 189.779 64.3125 189.542 64.3125C189.381 64.3125 189.232 64.3551 189.096 64.4403C188.961 64.5237 188.853 64.6402 188.769 64.7898C188.688 64.9394 188.647 65.1127 188.647 65.3097V68H187.798ZM198.138 64.7017L197.368 64.8381C197.336 64.7396 197.285 64.6458 197.214 64.5568C197.146 64.4678 197.054 64.3949 196.936 64.3381C196.819 64.2812 196.672 64.2528 196.496 64.2528C196.255 64.2528 196.054 64.3068 195.893 64.4148C195.732 64.5208 195.652 64.6581 195.652 64.8267C195.652 64.9725 195.706 65.09 195.814 65.179C195.922 65.268 196.096 65.3409 196.337 65.3977L197.03 65.5568C197.431 65.6496 197.731 65.7926 197.928 65.9858C198.125 66.179 198.223 66.4299 198.223 66.7386C198.223 67 198.147 67.233 197.996 67.4375C197.846 67.6402 197.637 67.7992 197.368 67.9148C197.101 68.0303 196.791 68.0881 196.439 68.0881C195.95 68.0881 195.552 67.9839 195.243 67.7756C194.934 67.5653 194.745 67.267 194.675 66.8807L195.496 66.7557C195.547 66.9697 195.652 67.1316 195.811 67.2415C195.97 67.3494 196.178 67.4034 196.433 67.4034C196.712 67.4034 196.934 67.3456 197.101 67.2301C197.268 67.1127 197.351 66.9697 197.351 66.8011C197.351 66.6648 197.3 66.5502 197.197 66.4574C197.097 66.3646 196.943 66.2945 196.734 66.2472L195.996 66.0852C195.589 65.9924 195.287 65.8447 195.092 65.642C194.899 65.4394 194.803 65.1828 194.803 64.8722C194.803 64.6146 194.875 64.3892 195.018 64.196C195.162 64.0028 195.361 63.8523 195.615 63.7443C195.869 63.6345 196.16 63.5795 196.487 63.5795C196.959 63.5795 197.33 63.6818 197.601 63.8864C197.872 64.089 198.051 64.3608 198.138 64.7017Z" fill="#1A0202"/>
<g filter="url(#filter4_d_373_3)">
<ellipse cx="179.912" cy="27.937" rx="29.6801" ry="26.1171" fill="white"/>
<path d="M209.342 27.937C209.342 42.1939 196.197 53.8041 179.912 53.8041C163.627 53.8041 150.482 42.1939 150.482 27.937C150.482 13.68 163.627 2.06982 179.912 2.06982C196.197 2.06982 209.342 13.68 209.342 27.937Z" stroke="black" stroke-opacity="0.13" stroke-width="0.5"/>
</g>
<g filter="url(#filter5_d_373_3)">
<ellipse cx="105.284" cy="109.854" rx="29.6801" ry="26.1171" fill="white"/>
<path d="M134.714 109.854C134.714 124.111 121.568 135.722 105.284 135.722C88.9988 135.722 75.8535 124.111 75.8535 109.854C75.8535 95.5975 88.9988 83.9873 105.284 83.9873C121.568 83.9873 134.714 95.5975 134.714 109.854Z" stroke="black" stroke-opacity="0.13" stroke-width="0.5"/>
</g>
<path d="M180.58 102.108C171.324 102.216 170.517 111.681 171.27 116.401H189.084C191.076 104.562 184.244 101.94 180.58 102.108Z" fill="#3C4652"/>
<rect x="170.383" y="117.817" width="19.8806" height="2.36087" rx="1.18044" fill="#3C4652"/>
<rect width="5.08226" height="0.876895" rx="0.438448" transform="matrix(1 0 0 -1 190.264 111.207)" fill="#126EB8"/>
<rect width="5.08226" height="0.876895" rx="0.438448" transform="matrix(1 0 0 -1 164.479 111.612)" fill="#126EB8"/>
<rect width="4.58686" height="0.971605" rx="0.485802" transform="matrix(-0.00809831 0.999967 0.999978 0.00659646 179.706 95.791)" fill="#126EB8"/>
<rect width="4.9419" height="0.905742" rx="0.452871" transform="matrix(0.864276 -0.503019 -0.581369 -0.81364 190.267 104.583)" fill="#D9D9D9"/>
<rect width="4.9419" height="0.905742" rx="0.452871" transform="matrix(0.864276 -0.503019 -0.581369 -0.81364 190.267 104.583)" fill="#126EB8"/>
<rect width="4.9419" height="0.905742" rx="0.452871" transform="matrix(0.864276 0.503019 -0.581369 0.81364 166.5 101.359)" fill="#126EB8"/>
<ellipse rx="1.55273" ry="1.87905" transform="matrix(0.951047 0.309045 -0.370542 0.928816 176.885 107.396)" fill="white"/>
<rect x="102.941" y="99.4795" width="4.16412" height="22.8623" rx="1" fill="#3C4652"/>
<rect x="108.494" y="99.4795" width="4.16412" height="22.8623" rx="1" fill="#3C4652"/>
<rect x="114.046" y="99.4795" width="4.16412" height="22.8623" rx="1" fill="#3C4652"/>
<path d="M119.946 104.491V102.298C120.864 102.396 121.017 103.07 120.979 103.394C121.071 104.174 120.328 104.45 119.946 104.491Z" fill="#126EB8"/>
<rect x="118.904" y="101.672" width="0.69402" height="3.13183" rx="0.34701" fill="#126EB8"/>
<path d="M119.946 120.462V118.27C120.864 118.367 121.017 119.041 120.979 119.366C121.071 120.146 120.328 120.422 119.946 120.462Z" fill="#126EB8"/>
<rect x="118.904" y="117.644" width="0.69402" height="3.13183" rx="0.34701" fill="#126EB8"/>
<path d="M89.7554 104.177V101.985C88.8369 102.082 88.6839 102.756 88.7222 103.081C88.6303 103.86 89.3727 104.137 89.7554 104.177Z" fill="#126EB8"/>
<rect width="0.69402" height="3.13183" rx="0.34701" transform="matrix(-1 0 0 1 90.7964 101.358)" fill="#126EB8"/>
<path d="M89.7554 120.15V117.958C88.8369 118.055 88.6839 118.729 88.7222 119.054C88.6303 119.833 89.3727 120.109 89.7554 120.15Z" fill="#126EB8"/>
<rect width="0.69402" height="3.13183" rx="0.34701" transform="matrix(-1 0 0 1 90.7964 117.331)" fill="#126EB8"/>
<rect x="91.4902" y="99.4795" width="4.51113" height="22.8623" rx="1" fill="#3C4652"/>
<rect x="97.043" y="99.4795" width="4.51113" height="22.8623" rx="1" fill="#3C4652"/>
<path d="M163.98 29.016C163.98 30.7047 164.837 32.2074 166.176 33.2551V35.6945C166.176 36.2193 166.667 36.6486 167.274 36.6486H169.469C170.073 36.6486 170.567 36.2193 170.567 35.6945V34.7941H188.13V35.6945C188.13 36.2214 188.622 36.6486 189.228 36.6486H191.423C192.03 36.6486 192.521 36.2214 192.521 35.6945V33.2557C193.86 32.208 194.717 30.7053 194.717 29.0166V27.1079H163.98V29.016Z" fill="#3C4652"/>
<rect x="162.334" y="22.7549" width="34.0292" height="2.92183" rx="1.46092" fill="#3C4652"/>
<path d="M119.787 20.7232C119.639 20.1554 118.858 19.9657 118.411 20.3786L114.515 23.9739L110.286 23.9738V20.0715L114.181 16.4762C114.629 16.0635 114.423 15.3426 113.808 15.2064C112.602 14.9391 111.297 14.9194 109.944 15.2181C106.817 15.9084 104.377 18.3597 103.878 21.29C103.613 22.5077 103.74 23.7239 104.137 24.8228L95.0733 33.1864C93.6422 34.5069 93.6422 36.6468 95.0733 37.9669C95.7431 38.629 96.6795 39 97.5721 39C98.4648 39 99.447 38.6698 100.163 38.0096L109.227 29.646C110.421 30.0093 111.737 30.1269 113.104 29.928C116.28 29.4659 118.936 27.2137 119.684 24.3304C120.097 23.0383 120.077 21.8361 119.787 20.7232ZM98.0251 36.3702C97.3508 36.3702 96.8037 35.8654 96.8037 35.2432C96.8037 34.6205 97.3508 34.1162 98.0251 34.1162C98.6994 34.1162 99.2465 34.6205 99.2465 35.2432C99.2465 35.8678 98.6994 36.3702 98.0251 36.3702Z" fill="#3C4652"/>
<defs>
<filter id="filter0_d_373_3" x="0" y="0" width="67.3604" height="60.2344" filterUnits="userSpaceOnUse" color-interpolation-filters="sRGB">
<feFlood flood-opacity="0" result="BackgroundImageFix"/>
<feColorMatrix in="SourceAlpha" type="matrix" values="0 0 0 0 0 0 0 0 0 0 0 0 0 0 0 0 0 0 127 0" result="hardAlpha"/>
<feOffset dy="4"/>
<feGaussianBlur stdDeviation="2"/>
<feComposite in2="hardAlpha" operator="out"/>
<feColorMatrix type="matrix" values="0 0 0 0 0 0 0 0 0 0 0 0 0 0 0 0 0 0 0.26 0"/>
<feBlend mode="normal" in2="BackgroundImageFix" result="effect1_dropShadow_373_3"/>
<feBlend mode="normal" in="SourceGraphic" in2="effect1_dropShadow_373_3" result="shape"/>
</filter>
<filter id="filter1_d_373_3" x="0" y="83.4678" width="67.3604" height="60.2344" filterUnits="userSpaceOnUse" color-interpolation-filters="sRGB">
<feFlood flood-opacity="0" result="BackgroundImageFix"/>
<feColorMatrix in="SourceAlpha" type="matrix" values="0 0 0 0 0 0 0 0 0 0 0 0 0 0 0 0 0 0 127 0" result="hardAlpha"/>
<feOffset dy="4"/>
<feGaussianBlur stdDeviation="2"/>
<feComposite in2="hardAlpha" operator="out"/>
<feColorMatrix type="matrix" values="0 0 0 0 0 0 0 0 0 0 0 0 0 0 0 0 0 0 0.26 0"/>
<feBlend mode="normal" in2="BackgroundImageFix" result="effect1_dropShadow_373_3"/>
<feBlend mode="normal" in="SourceGraphic" in2="effect1_dropShadow_373_3" result="shape"/>
</filter>
<filter id="filter2_d_373_3" x="146.232" y="83.7373" width="67.3604" height="60.2344" filterUnits="userSpaceOnUse" color-interpolation-filters="sRGB">
<feFlood flood-opacity="0" result="BackgroundImageFix"/>
<feColorMatrix in="SourceAlpha" type="matrix" values="0 0 0 0 0 0 0 0 0 0 0 0 0 0 0 0 0 0 127 0" result="hardAlpha"/>
<feOffset dy="4"/>
<feGaussianBlur stdDeviation="2"/>
<feComposite in2="hardAlpha" operator="out"/>
<feColorMatrix type="matrix" values="0 0 0 0 0 0 0 0 0 0 0 0 0 0 0 0 0 0 0.26 0"/>
<feBlend mode="normal" in2="BackgroundImageFix" result="effect1_dropShadow_373_3"/>
<feBlend mode="normal" in="SourceGraphic" in2="effect1_dropShadow_373_3" result="shape"/>
</filter>
<filter id="filter3_d_373_3" x="72.6113" y="1.81982" width="67.3604" height="60.2344" filterUnits="userSpaceOnUse" color-interpolation-filters="sRGB">
<feFlood flood-opacity="0" result="BackgroundImageFix"/>
<feColorMatrix in="SourceAlpha" type="matrix" values="0 0 0 0 0 0 0 0 0 0 0 0 0 0 0 0 0 0 127 0" result="hardAlpha"/>
<feOffset dy="4"/>
<feGaussianBlur stdDeviation="2"/>
<feComposite in2="hardAlpha" operator="out"/>
<feColorMatrix type="matrix" values="0 0 0 0 0 0 0 0 0 0 0 0 0 0 0 0 0 0 0.26 0"/>
<feBlend mode="normal" in2="BackgroundImageFix" result="effect1_dropShadow_373_3"/>
<feBlend mode="normal" in="SourceGraphic" in2="effect1_dropShadow_373_3" result="shape"/>
</filter>
<filter id="filter4_d_373_3" x="146.232" y="1.81982" width="67.3604" height="60.2344" filterUnits="userSpaceOnUse" color-interpolation-filters="sRGB">
<feFlood flood-opacity="0" result="BackgroundImageFix"/>
<feColorMatrix in="SourceAlpha" type="matrix" values="0 0 0 0 0 0 0 0 0 0 0 0 0 0 0 0 0 0 127 0" result="hardAlpha"/>
<feOffset dy="4"/>
<feGaussianBlur stdDeviation="2"/>
<feComposite in2="hardAlpha" operator="out"/>
<feColorMatrix type="matrix" values="0 0 0 0 0 0 0 0 0 0 0 0 0 0 0 0 0 0 0.26 0"/>
<feBlend mode="normal" in2="BackgroundImageFix" result="effect1_dropShadow_373_3"/>
<feBlend mode="normal" in="SourceGraphic" in2="effect1_dropShadow_373_3" result="shape"/>
</filter>
<filter id="filter5_d_373_3" x="71.6035" y="83.7373" width="67.3604" height="60.2344" filterUnits="userSpaceOnUse" color-interpolation-filters="sRGB">
<feFlood flood-opacity="0" result="BackgroundImageFix"/>
<feColorMatrix in="SourceAlpha" type="matrix" values="0 0 0 0 0 0 0 0 0 0 0 0 0 0 0 0 0 0 127 0" result="hardAlpha"/>
<feOffset dy="4"/>
<feGaussianBlur stdDeviation="2"/>
<feComposite in2="hardAlpha" operator="out"/>
<feColorMatrix type="matrix" values="0 0 0 0 0 0 0 0 0 0 0 0 0 0 0 0 0 0 0.26 0"/>
<feBlend mode="normal" in2="BackgroundImageFix" result="effect1_dropShadow_373_3"/>
<feBlend mode="normal" in="SourceGraphic" in2="effect1_dropShadow_373_3" result="shape"/>
</filter>
</defs>
</svg>
